<?xml version="1.0" standalone="no"?>
<!DOCTYPE svg PUBLIC "-//W3C//DTD SVG 20010904//EN"
 "http://www.w3.org/TR/2001/REC-SVG-20010904/DTD/svg10.dtd">
<svg version="1.0" xmlns="http://www.w3.org/2000/svg"
 width="2001.000000pt" height="1741.000000pt" viewBox="0 0 2001.000000 1741.000000"
 preserveAspectRatio="xMidYMid meet">

<g transform="translate(0.000000,1741.000000) scale(0.100000,-0.100000)"
fill="#000000" stroke="none">
<path d="M9755 13904 c-96 -6 -249 -23 -400 -45 -1485 -215 -2793 -1099 -3584
-2424 -101 -169 -268 -510 -344 -705 -247 -630 -358 -1215 -359 -1894 0 -266
11 -438 42 -681 253 -1921 1585 -3541 3409 -4145 503 -166 1025 -250 1558
-250 1659 1 3190 819 4135 2210 892 1312 1119 3007 604 4515 -256 752 -658
1397 -1221 1961 -401 401 -807 694 -1315 948 -529 264 -1051 417 -1680 492
-119 15 -701 27 -845 18z m785 -222 c321 -43 411 -57 470 -72 19 -4 53 -13 75
-18 22 -6 67 -16 100 -23 33 -6 80 -18 105 -26 71 -23 149 -43 170 -43 11 0
20 -4 20 -10 0 -5 10 -10 23 -10 13 0 27 -4 33 -8 5 -5 29 -14 54 -21 25 -7
53 -17 62 -22 10 -5 24 -9 33 -9 8 0 29 -8 47 -18 18 -10 54 -25 81 -32 26 -8
47 -18 47 -22 0 -4 9 -8 19 -8 11 0 36 -9 58 -19 21 -11 53 -25 71 -31 17 -7
32 -16 32 -21 0 -5 7 -9 15 -9 9 0 35 -9 57 -20 23 -11 47 -20 54 -20 7 0 14
-4 16 -8 2 -4 37 -24 78 -45 93 -46 134 -70 138 -79 2 -5 12 -8 23 -8 10 0 19
-3 19 -7 0 -5 23 -19 50 -32 28 -14 50 -29 50 -33 0 -4 8 -8 18 -8 10 0 24 -9
32 -20 8 -11 22 -20 32 -20 10 0 18 -4 18 -10 0 -5 6 -10 13 -10 7 0 23 -9 35
-20 12 -11 25 -20 30 -20 4 0 17 -8 28 -17 22 -19 42 -34 88 -61 16 -9 39 -27
52 -39 13 -13 27 -23 32 -23 5 0 23 -13 40 -30 18 -16 36 -30 41 -30 5 0 27
-18 50 -40 22 -22 45 -40 50 -40 5 0 39 -29 76 -65 36 -36 71 -65 75 -65 13 0
390 -378 390 -391 0 -5 27 -37 60 -69 33 -32 60 -64 60 -69 0 -6 18 -30 40
-52 22 -23 40 -46 40 -51 0 -6 14 -23 30 -38 16 -15 30 -33 30 -40 0 -7 14
-25 30 -40 17 -15 30 -35 30 -44 0 -9 4 -16 8 -16 5 0 15 -12 23 -27 8 -16 22
-35 31 -44 10 -9 18 -22 18 -28 0 -7 11 -23 25 -36 13 -14 32 -42 42 -62 9
-21 25 -47 35 -57 10 -11 18 -26 18 -33 0 -7 5 -13 10 -13 6 0 10 -7 10 -15 0
-9 9 -25 20 -37 11 -12 20 -28 20 -35 0 -7 5 -13 10 -13 6 0 10 -9 10 -20 0
-11 5 -20 10 -20 6 0 10 -9 10 -20 0 -11 5 -20 10 -20 6 0 10 -7 10 -15 0 -9
9 -25 20 -37 11 -12 20 -30 20 -39 0 -10 4 -20 9 -23 13 -8 71 -132 71 -150 0
-9 5 -16 10 -16 6 0 10 -9 10 -20 0 -11 5 -20 10 -20 6 0 10 -9 10 -20 0 -11
5 -20 10 -20 6 0 10 -9 10 -19 0 -11 5 -23 10 -26 6 -3 10 -17 10 -31 0 -13 5
-24 10 -24 6 0 10 -9 10 -20 0 -11 4 -20 8 -20 4 0 14 -21 22 -47 7 -26 19
-59 26 -72 7 -14 11 -28 8 -33 -3 -4 0 -8 5 -8 6 0 11 -7 11 -15 0 -8 4 -23 9
-33 5 -9 15 -37 22 -62 7 -25 16 -49 21 -54 4 -6 8 -20 8 -33 0 -13 4 -23 9
-23 8 0 11 -11 27 -103 3 -20 10 -40 15 -43 5 -3 9 -16 9 -29 0 -13 5 -27 10
-30 6 -3 10 -21 10 -40 0 -19 4 -36 9 -39 8 -6 14 -31 27 -133 3 -24 10 -43
15 -43 5 0 9 -18 9 -40 0 -22 4 -40 9 -40 5 0 12 -28 15 -62 2 -35 10 -91 15
-125 28 -161 32 -196 44 -318 15 -168 15 -723 -1 -890 -11 -125 -16 -162 -42
-305 -6 -36 -16 -94 -21 -130 -5 -36 -12 -82 -15 -103 -4 -20 -10 -40 -15 -43
-5 -3 -9 -20 -9 -39 0 -19 -4 -37 -10 -40 -5 -3 -10 -20 -10 -37 0 -18 -4 -45
-9 -62 -5 -17 -18 -60 -29 -96 -11 -36 -25 -87 -32 -115 -6 -27 -16 -59 -20
-70 -5 -11 -24 -65 -42 -120 -18 -55 -35 -102 -38 -105 -3 -3 -17 -39 -30 -80
-14 -41 -28 -76 -32 -78 -5 -2 -8 -12 -8 -23 0 -10 -4 -19 -10 -19 -5 0 -10
-7 -10 -15 0 -9 -9 -35 -20 -57 -11 -23 -20 -48 -20 -55 0 -7 -3 -13 -8 -13
-4 0 -13 -15 -21 -32 -30 -71 -55 -123 -60 -128 -4 -3 -12 -17 -19 -32 -6 -16
-18 -40 -24 -55 -7 -16 -16 -30 -19 -33 -3 -3 -20 -35 -39 -72 -18 -38 -36
-68 -39 -68 -3 0 -13 -15 -20 -32 -13 -29 -77 -136 -98 -163 -5 -5 -14 -22
-22 -37 -8 -16 -18 -28 -23 -28 -4 0 -8 -6 -8 -13 0 -7 -8 -22 -17 -33 -25
-28 -63 -82 -63 -89 0 -4 -6 -12 -12 -19 -7 -7 -22 -25 -33 -41 -11 -15 -31
-42 -45 -59 -14 -17 -41 -51 -60 -76 -19 -25 -38 -47 -42 -48 -4 -2 -8 -8 -8
-13 0 -6 -17 -28 -37 -51 -21 -22 -49 -53 -63 -68 -141 -158 -200 -219 -293
-305 -60 -55 -123 -113 -140 -130 -18 -16 -52 -46 -77 -65 -25 -19 -51 -40
-58 -48 -8 -7 -30 -25 -50 -40 -21 -15 -48 -37 -62 -50 -14 -12 -33 -25 -42
-28 -10 -3 -18 -9 -18 -13 0 -4 -11 -13 -24 -19 -14 -6 -33 -18 -43 -26 -50
-41 -114 -86 -122 -86 -5 0 -11 -4 -13 -8 -3 -7 -28 -23 -127 -82 -14 -9 -44
-27 -66 -41 -22 -13 -53 -31 -70 -39 -16 -8 -32 -18 -35 -22 -10 -13 -365
-188 -382 -188 -10 0 -18 -4 -18 -10 0 -5 -9 -10 -20 -10 -11 0 -20 -4 -20
-10 0 -5 -6 -10 -13 -10 -7 0 -32 -9 -55 -20 -22 -11 -47 -20 -55 -20 -7 0
-17 -4 -22 -9 -6 -5 -39 -18 -75 -30 -63 -22 -99 -35 -130 -51 -8 -4 -40 -13
-70 -20 -30 -8 -59 -17 -65 -22 -5 -4 -17 -8 -27 -8 -10 0 -26 -4 -36 -9 -16
-9 -56 -20 -147 -43 -22 -5 -54 -14 -71 -19 -17 -5 -40 -9 -52 -9 -11 0 -23
-4 -26 -9 -3 -4 -25 -11 -48 -15 -24 -3 -65 -10 -93 -16 -27 -6 -70 -13 -95
-16 -25 -3 -54 -9 -65 -14 -11 -5 -42 -11 -70 -14 -27 -3 -90 -10 -140 -15
-122 -14 -431 -32 -535 -32 -47 0 -170 5 -275 11 -104 7 -228 14 -275 17 -47
2 -89 9 -95 14 -5 5 -33 9 -61 9 -29 0 -56 5 -59 10 -3 5 -25 10 -49 10 -23 0
-46 4 -51 9 -6 5 -32 12 -60 15 -114 13 -145 18 -145 27 0 5 -15 9 -34 9 -19
0 -37 4 -40 9 -6 8 -31 14 -119 27 -20 4 -40 10 -43 15 -3 5 -18 9 -35 9 -16
0 -29 5 -29 10 0 6 -13 10 -30 10 -16 0 -30 5 -30 10 0 6 -9 10 -20 10 -28 0
-100 23 -100 32 0 5 -13 8 -30 8 -16 0 -30 5 -30 10 0 6 -11 10 -24 10 -14 0
-28 5 -31 10 -3 6 -17 10 -30 10 -13 0 -27 5 -30 10 -3 6 -15 10 -26 10 -10 0
-19 5 -19 10 0 6 -9 10 -20 10 -11 0 -20 5 -20 10 0 6 -13 10 -30 10 -16 0
-30 5 -30 10 0 6 -9 10 -20 10 -11 0 -20 5 -20 10 0 6 -9 10 -20 10 -11 0 -20
5 -20 10 0 6 -11 10 -24 10 -14 0 -28 4 -31 10 -3 5 -15 10 -26 10 -10 0 -19
5 -19 10 0 6 -9 10 -20 10 -11 0 -20 3 -20 8 0 8 -49 32 -67 32 -7 0 -13 5
-13 10 0 6 -9 10 -19 10 -11 0 -21 3 -23 8 -1 4 -33 22 -70 41 -38 19 -68 38
-68 42 0 5 -9 9 -20 9 -11 0 -20 5 -20 10 0 6 -9 10 -20 10 -11 0 -20 5 -20
10 0 6 -6 10 -13 10 -7 0 -23 9 -35 20 -12 11 -27 20 -34 20 -8 0 -20 9 -28
20 -8 11 -22 20 -32 20 -10 0 -18 4 -18 9 0 5 -14 14 -30 21 -17 7 -30 16 -30
21 0 5 -6 9 -13 9 -7 0 -23 9 -35 20 -12 11 -25 20 -30 20 -5 0 -22 12 -38 28
-16 15 -42 33 -57 41 -15 8 -27 18 -27 23 0 4 -6 8 -12 8 -7 0 -27 14 -45 30
-18 17 -36 30 -40 30 -5 0 -32 23 -61 50 -29 27 -56 50 -61 50 -5 0 -37 27
-70 60 -34 33 -66 60 -72 60 -5 0 -7 4 -4 10 3 6 -1 10 -9 10 -16 0 -326 305
-326 320 0 6 -27 37 -60 71 -33 33 -60 65 -60 70 0 5 -22 32 -50 61 -27 29
-50 56 -50 60 0 5 -13 22 -30 40 -16 17 -30 35 -30 40 0 4 -13 22 -30 40 -17
17 -30 35 -30 41 0 5 -9 17 -19 26 -11 10 -21 24 -23 31 -2 8 -13 25 -26 38
-12 13 -20 27 -18 31 3 4 -4 14 -15 21 -10 8 -19 22 -19 32 0 10 -4 18 -8 18
-5 0 -15 12 -23 28 -8 15 -22 36 -32 46 -9 11 -17 26 -17 33 0 7 -4 13 -10 13
-5 0 -10 9 -10 20 0 11 -4 20 -8 20 -5 0 -20 21 -33 48 -13 26 -27 49 -31 50
-5 2 -8 12 -8 23 0 10 -4 19 -8 19 -4 0 -19 22 -33 50 -13 27 -27 50 -31 50
-5 0 -8 6 -8 13 0 6 -22 57 -50 112 -27 55 -50 108 -50 118 0 9 -4 17 -10 17
-5 0 -10 9 -10 20 0 11 -4 20 -10 20 -5 0 -10 6 -10 13 0 7 -9 32 -20 55 -11
22 -20 48 -20 57 0 8 -3 15 -8 15 -4 0 -18 36 -32 80 -14 44 -28 80 -32 80 -5
0 -8 7 -8 15 0 8 -4 23 -9 33 -12 22 -85 261 -101 327 -7 28 -15 59 -20 70
-12 30 -28 95 -35 140 -7 39 -13 72 -35 173 -20 87 -34 181 -61 402 -13 109
-30 399 -30 515 0 117 17 396 31 510 23 190 37 292 55 395 4 19 10 44 15 55 5
11 11 36 14 55 3 19 10 60 16 90 6 30 13 70 17 88 3 17 9 32 13 32 4 0 10 15
13 33 3 17 11 52 17 77 6 25 14 60 17 78 3 17 9 32 14 32 5 0 9 11 9 24 0 14
5 28 10 31 6 3 10 17 10 30 0 13 5 27 10 30 6 3 10 19 10 36 0 16 5 29 10 29
6 0 10 11 10 24 0 14 5 28 10 31 6 3 10 15 10 26 0 10 5 19 10 19 6 0 10 11
10 24 0 14 5 28 10 31 6 3 10 15 10 25 0 11 9 35 20 55 11 20 20 42 20 50 0 8
5 15 10 15 6 0 10 9 10 19 0 10 14 45 30 76 17 31 30 63 30 71 0 8 5 14 10 14
6 0 10 9 10 20 0 11 5 20 10 20 6 0 10 9 10 20 0 11 5 20 10 20 6 0 10 9 10
20 0 11 5 20 10 20 6 0 10 9 10 20 0 11 5 20 10 20 6 0 10 9 10 20 0 11 3 20
8 20 8 0 32 49 32 67 0 7 5 13 10 13 6 0 10 6 10 13 0 7 9 23 20 35 11 12 20
28 20 37 0 8 5 15 10 15 6 0 10 8 10 18 0 10 9 24 20 32 11 8 20 22 20 32 0
10 5 18 10 18 6 0 10 6 10 13 0 7 9 23 20 35 11 12 20 28 20 37 0 8 5 15 10
15 6 0 10 6 10 14 0 7 12 26 28 42 15 16 33 42 41 57 8 15 18 27 23 27 4 0 8
8 8 18 0 10 9 24 20 32 11 8 20 20 20 26 0 6 14 25 30 42 17 18 30 36 30 41 0
5 18 27 40 50 22 22 40 45 40 50 0 5 18 27 40 50 22 22 40 45 40 49 0 4 44 53
98 109 53 55 102 109 108 119 6 11 20 23 31 28 11 5 24 18 29 29 5 11 18 25
28 31 30 17 66 53 59 60 -4 3 -1 6 5 6 7 0 44 32 83 70 39 39 75 70 80 70 5 0
32 23 60 50 28 28 56 50 61 50 6 0 18 8 27 18 9 10 32 29 51 42 19 13 42 32
51 42 9 10 21 18 28 18 6 0 25 14 43 30 17 17 35 30 40 30 4 0 22 14 40 30 17
17 37 30 44 30 8 0 14 5 14 10 0 6 8 10 18 10 10 0 24 9 32 20 8 11 20 20 28
20 7 0 22 9 34 20 12 11 28 20 35 20 7 0 13 4 13 8 0 5 21 20 48 33 26 13 49
27 50 32 2 4 12 7 23 7 10 0 19 4 19 8 0 5 21 20 48 33 26 13 49 27 50 32 2 4
12 7 23 7 10 0 19 5 19 10 0 6 6 10 13 10 18 0 67 24 67 33 0 4 9 7 20 7 11 0
20 5 20 10 0 6 9 10 20 10 11 0 20 5 20 10 0 6 6 10 14 10 8 0 40 14 71 30 31
17 66 30 76 30 10 0 19 5 19 10 0 6 9 10 20 10 11 0 20 5 20 10 0 6 9 10 19
10 11 0 23 5 26 10 3 6 17 10 30 10 13 0 27 5 30 10 3 6 17 10 31 10 13 0 24
5 24 10 0 6 9 10 20 10 11 0 20 5 20 10 0 6 13 10 29 10 17 0 33 5 36 10 3 6
17 10 30 10 13 0 27 5 30 10 3 6 17 10 30 10 13 0 27 5 30 10 3 6 17 10 31 10
13 0 24 4 24 9 0 5 16 12 35 15 19 3 51 9 70 12 19 3 38 10 41 15 3 5 16 9 29
9 13 0 26 4 29 9 3 5 23 11 43 14 52 8 129 24 183 37 25 6 61 14 80 16 19 3
44 9 55 14 11 5 49 12 85 15 36 4 94 10 130 14 36 3 70 9 76 13 5 4 45 8 87 9
43 1 80 6 83 11 7 12 736 3 834 -10z"/>
<path d="M9818 13635 c-2 -3 -58 -9 -124 -15 -65 -5 -150 -14 -189 -19 -147
-21 -212 -31 -270 -42 -33 -6 -73 -13 -90 -16 -16 -2 -39 -8 -50 -13 -21 -9
-60 -17 -130 -27 -22 -3 -46 -10 -53 -15 -7 -6 -20 -12 -30 -13 -9 -1 -24 -4
-32 -7 -8 -3 -35 -11 -60 -18 -60 -15 -170 -49 -195 -59 -11 -5 -38 -14 -60
-20 -22 -7 -62 -21 -90 -33 -27 -11 -59 -24 -70 -28 -202 -74 -670 -308 -683
-341 -2 -5 -15 -9 -28 -9 -13 0 -24 -4 -24 -8 0 -5 -11 -14 -25 -20 -14 -7
-31 -16 -38 -22 -10 -8 -163 -111 -216 -145 -54 -35 -79 -52 -101 -72 -14 -13
-28 -23 -32 -23 -4 0 -17 -10 -30 -23 -13 -12 -39 -33 -58 -47 -19 -13 -52
-40 -72 -59 -21 -18 -48 -41 -60 -49 -72 -49 -422 -402 -527 -532 -19 -23 -40
-48 -46 -54 -5 -6 -26 -31 -45 -56 -19 -25 -37 -47 -40 -50 -3 -3 -16 -22 -30
-42 -14 -21 -28 -38 -32 -38 -5 0 -8 -4 -8 -10 0 -9 -43 -71 -86 -123 -8 -9
-14 -20 -14 -23 0 -6 -60 -96 -70 -104 -3 -3 -14 -22 -23 -42 -10 -20 -23 -43
-30 -50 -7 -7 -23 -34 -37 -60 -14 -27 -29 -48 -34 -48 -4 0 -6 -7 -2 -15 3
-8 0 -18 -7 -22 -7 -5 -28 -38 -47 -75 -19 -38 -38 -68 -42 -68 -5 0 -8 -7 -8
-16 0 -9 -13 -42 -29 -73 -46 -89 -111 -226 -111 -234 0 -5 -13 -36 -29 -70
-16 -34 -39 -91 -51 -127 -13 -36 -26 -69 -29 -75 -4 -5 -13 -30 -20 -55 -7
-25 -17 -53 -22 -62 -5 -10 -9 -26 -9 -36 0 -10 -4 -22 -8 -27 -5 -6 -14 -30
-21 -55 -7 -25 -17 -59 -22 -76 -5 -17 -9 -40 -9 -52 0 -12 -5 -22 -11 -22 -6
0 -9 -10 -8 -22 2 -13 0 -29 -5 -37 -10 -16 -23 -65 -36 -136 -5 -27 -14 -70
-20 -95 -22 -89 -32 -145 -60 -350 -30 -220 -33 -276 -33 -620 0 -368 7 -528
23 -565 5 -11 12 -47 14 -80 15 -166 18 -191 27 -199 5 -6 9 -29 9 -52 0 -24
5 -46 10 -49 6 -3 10 -21 10 -39 0 -17 4 -36 9 -41 5 -6 11 -30 14 -55 2 -25
15 -79 27 -120 12 -41 24 -90 27 -108 3 -18 9 -35 14 -38 5 -3 9 -20 9 -39 0
-19 5 -37 10 -40 6 -3 10 -17 10 -31 0 -13 5 -24 10 -24 6 0 10 -13 10 -30 0
-16 5 -30 10 -30 6 0 10 -13 10 -29 0 -17 5 -33 10 -36 6 -3 10 -17 10 -31 0
-13 5 -24 10 -24 6 0 10 -9 10 -19 0 -11 5 -23 10 -26 6 -3 10 -17 10 -31 0
-13 5 -24 10 -24 6 0 10 -13 10 -30 0 -16 5 -30 10 -30 6 0 10 -9 10 -20 0
-11 5 -20 10 -20 6 0 10 -9 10 -19 0 -11 5 -23 10 -26 6 -3 10 -17 10 -31 0
-13 5 -24 10 -24 6 0 10 -9 10 -20 0 -11 5 -20 10 -20 6 0 10 -9 10 -20 0 -11
5 -20 10 -20 6 0 10 -6 10 -14 0 -17 121 -260 132 -264 4 -2 8 -10 8 -18 0 -8
5 -14 10 -14 6 0 10 -11 10 -25 0 -14 4 -25 8 -25 5 0 20 -21 33 -48 13 -26
27 -48 32 -50 4 -2 7 -11 7 -21 0 -9 9 -23 20 -31 11 -8 20 -22 20 -32 0 -10
4 -18 9 -18 5 0 12 -8 16 -19 3 -10 17 -31 30 -47 14 -16 25 -35 25 -41 0 -7
4 -13 8 -13 5 0 15 -12 23 -27 8 -16 22 -37 32 -47 9 -11 17 -25 17 -31 0 -6
9 -17 20 -25 11 -8 20 -19 20 -25 0 -6 18 -31 40 -55 22 -25 40 -48 40 -53 0
-4 13 -22 29 -40 16 -17 31 -36 33 -42 2 -5 24 -32 50 -59 27 -26 48 -52 48
-58 0 -11 445 -458 457 -458 5 0 32 -23 61 -50 29 -27 56 -50 60 -50 5 0 25
-16 46 -35 21 -19 41 -35 45 -35 3 0 24 -16 46 -35 22 -19 44 -35 50 -35 6 0
17 -9 25 -20 8 -11 20 -20 26 -20 6 0 24 -12 40 -27 16 -16 50 -39 77 -53 26
-14 47 -28 47 -32 0 -5 6 -8 13 -8 7 0 22 -8 33 -18 10 -9 31 -23 47 -31 15
-8 27 -18 27 -23 0 -4 9 -8 20 -8 11 0 20 -3 20 -8 0 -4 17 -15 39 -24 21 -9
45 -23 52 -30 8 -7 71 -42 142 -78 70 -35 127 -68 127 -72 0 -4 7 -8 15 -8 9
0 35 -9 57 -20 23 -11 48 -20 55 -20 7 0 13 -4 13 -10 0 -5 9 -10 20 -10 11 0
20 -4 20 -8 0 -5 23 -15 50 -22 28 -7 50 -17 50 -22 0 -4 7 -8 15 -8 9 0 35
-9 57 -20 23 -11 49 -20 58 -20 9 0 20 -4 25 -8 6 -5 57 -24 115 -43 58 -18
107 -36 110 -40 5 -6 34 -13 108 -26 17 -3 32 -9 32 -14 0 -5 15 -9 34 -9 19
0 37 -4 40 -9 3 -5 20 -11 38 -14 18 -3 53 -11 78 -17 25 -6 68 -16 95 -21 28
-5 70 -14 95 -19 156 -32 232 -44 405 -62 136 -14 803 -14 940 0 55 6 135 14
178 17 42 4 80 12 83 16 3 5 24 9 48 9 23 0 46 4 51 9 6 5 30 11 55 14 25 3
70 11 100 17 30 6 70 13 88 17 18 3 35 9 38 14 3 5 21 9 40 9 19 0 34 5 34 10
0 6 8 10 18 10 10 0 22 3 25 6 4 4 23 8 44 10 34 3 49 8 118 34 48 18 93 30
113 30 12 0 22 5 22 10 0 6 9 10 19 10 11 0 23 5 26 10 3 6 17 10 31 10 13 0
24 5 24 10 0 6 14 10 30 10 17 0 30 5 30 10 0 6 9 10 19 10 11 0 23 5 26 10 3
6 17 10 31 10 13 0 24 5 24 10 0 6 9 10 19 10 11 0 23 5 26 10 3 6 17 10 31
10 13 0 24 5 24 10 0 6 9 10 20 10 11 0 20 5 20 10 0 6 9 10 20 10 11 0 20 5
20 10 0 6 6 10 14 10 17 0 100 42 104 53 2 4 10 7 17 7 16 0 99 42 103 53 2 4
12 7 23 7 10 0 19 5 19 10 0 6 9 10 20 10 11 0 20 5 20 10 0 6 9 10 20 10 11
0 20 4 20 9 0 5 16 16 36 26 19 9 38 23 41 31 3 8 11 14 17 14 18 0 66 24 66
33 0 4 9 7 20 7 11 0 20 4 20 8 0 5 12 15 28 23 15 8 36 22 46 32 11 9 25 17
31 17 6 0 17 9 25 20 8 11 21 20 30 20 9 0 22 9 30 20 8 11 19 20 25 20 5 0
26 14 45 30 19 16 38 30 43 30 4 0 21 13 39 30 17 16 35 30 39 30 5 0 28 18
50 40 23 22 45 40 50 40 4 0 39 29 76 65 37 36 71 65 75 65 17 0 249 241 242
252 -4 7 -3 8 4 4 10 -6 82 54 82 69 0 7 44 57 98 111 23 24 42 48 42 53 0 5
18 27 40 50 22 22 40 45 40 50 0 4 14 22 30 39 17 18 30 36 30 40 0 5 12 22
28 38 15 16 33 42 41 57 8 15 18 27 23 27 4 0 8 6 8 13 0 7 9 23 20 35 11 12
20 25 20 29 0 4 14 24 30 43 16 19 30 41 30 48 0 6 5 12 10 12 6 0 10 8 10 18
0 10 9 24 20 32 11 8 20 22 20 32 0 10 5 18 10 18 6 0 10 6 10 13 0 7 9 23 20
35 11 12 20 28 20 37 0 8 5 15 10 15 6 0 10 9 10 20 0 11 5 20 10 20 6 0 10 6
10 13 0 7 9 23 20 35 11 12 20 28 20 37 0 8 5 15 10 15 6 0 10 9 10 20 0 11 5
20 10 20 6 0 10 9 10 20 0 11 5 20 10 20 6 0 10 9 10 20 0 11 5 20 10 20 6 0
10 10 10 23 0 13 9 33 20 45 11 12 20 28 20 37 0 8 5 15 10 15 6 0 10 11 10
24 0 14 5 28 10 31 6 3 10 15 10 26 0 10 5 19 10 19 6 0 10 9 10 20 0 11 5 20
10 20 6 0 10 11 10 24 0 14 5 28 10 31 6 3 10 17 10 30 0 13 5 27 10 30 6 3
10 15 10 26 0 10 5 19 10 19 6 0 10 9 10 20 0 11 5 20 10 20 6 0 10 14 10 30
0 17 5 30 10 30 6 0 10 14 10 30 0 17 5 30 10 30 6 0 10 11 10 24 0 14 5 28
10 31 6 3 10 17 10 30 0 13 5 27 10 30 6 3 10 21 10 40 0 19 5 37 10 40 6 3
10 17 10 30 0 13 5 27 10 30 6 3 10 19 10 36 0 16 5 29 10 29 6 0 10 15 9 33
-2 17 3 42 9 54 7 12 12 35 12 52 0 16 4 32 9 35 5 3 11 20 14 38 3 18 11 56
17 83 6 28 13 75 16 105 3 30 9 64 14 75 5 11 12 43 15 70 3 28 10 82 15 120
51 370 43 943 -20 1310 -6 33 -15 87 -19 120 -10 67 -25 140 -42 200 -10 37
-20 84 -36 158 -3 15 -9 30 -14 33 -5 3 -9 17 -9 31 0 27 -16 84 -31 115 -5
10 -9 26 -9 35 -1 21 -43 150 -53 160 -4 3 -7 17 -7 29 0 13 -4 26 -10 29 -5
3 -10 14 -10 24 0 9 -9 36 -20 59 -11 22 -20 48 -20 57 0 8 -4 15 -8 15 -4 0
-14 21 -22 48 -7 26 -21 61 -30 77 -9 17 -22 46 -29 65 -28 72 -36 90 -43 90
-5 0 -8 9 -8 20 0 11 -4 20 -10 20 -5 0 -10 6 -10 14 0 17 -42 100 -52 104 -5
2 -8 10 -8 17 0 15 -40 95 -57 112 -6 7 -24 39 -39 70 -16 32 -34 64 -41 71
-7 7 -20 30 -30 50 -10 20 -25 46 -35 56 -10 11 -18 26 -18 33 0 7 -4 13 -10
13 -5 0 -10 7 -10 15 0 8 -13 29 -30 47 -16 17 -30 37 -30 44 0 8 -4 14 -8 14
-5 0 -15 12 -23 28 -8 15 -22 36 -31 46 -10 11 -18 23 -18 28 0 4 -13 22 -30
40 -16 17 -30 35 -30 39 0 5 -16 26 -35 46 -19 20 -35 40 -35 44 0 4 -25 33
-55 65 -30 33 -55 62 -55 67 0 4 -45 53 -100 108 -55 56 -100 106 -100 111 0
12 -26 38 -37 38 -4 0 -59 50 -121 110 -62 61 -116 110 -120 110 -4 0 -35 27
-70 60 -34 33 -66 60 -71 60 -4 0 -22 14 -39 30 -18 17 -36 30 -40 30 -5 0
-22 12 -38 28 -16 15 -42 33 -57 41 -15 8 -27 18 -27 23 0 4 -6 8 -14 8 -7 0
-27 14 -44 30 -18 17 -38 30 -45 30 -7 0 -19 9 -27 20 -8 11 -22 20 -32 20
-10 0 -18 5 -18 10 0 6 -6 10 -13 10 -7 0 -22 8 -33 18 -10 9 -31 23 -46 31
-16 8 -28 18 -28 23 0 4 -9 8 -20 8 -11 0 -20 5 -20 10 0 6 -6 10 -13 10 -7 0
-23 9 -35 20 -12 11 -28 20 -37 20 -8 0 -15 5 -15 10 0 6 -9 10 -19 10 -11 0
-21 3 -23 8 -4 10 -87 52 -103 52 -7 0 -15 4 -17 8 -4 11 -127 72 -144 72 -8
0 -14 3 -14 8 0 8 -49 32 -67 32 -7 0 -13 5 -13 10 0 6 -9 10 -20 10 -11 0
-35 9 -55 20 -20 11 -42 20 -50 20 -8 0 -15 5 -15 10 0 6 -13 10 -30 10 -16 0
-30 5 -30 10 0 6 -9 10 -20 10 -11 0 -20 5 -20 10 0 6 -11 10 -24 10 -14 0
-28 5 -31 10 -3 6 -17 10 -30 10 -13 0 -27 5 -30 10 -3 6 -19 10 -36 10 -16 0
-29 5 -29 10 0 6 -10 10 -23 10 -13 0 -27 3 -31 7 -12 12 -80 33 -108 33 -15
0 -30 5 -33 10 -4 6 -15 8 -24 5 -10 -3 -24 1 -31 10 -7 8 -25 15 -41 15 -16
0 -29 5 -29 10 0 6 -20 10 -44 10 -25 0 -48 5 -51 10 -3 6 -24 10 -46 10 -21
0 -39 4 -39 9 0 5 -19 11 -42 14 -24 3 -68 11 -98 17 -30 6 -82 13 -115 16
-33 3 -69 9 -80 14 -11 5 -47 12 -80 15 -33 3 -103 10 -155 15 -191 18 -399
24 -415 10 -10 -9 -15 -9 -15 -1 0 11 -231 17 -242 6z m627 -1193 c124 -13
304 -41 341 -52 17 -6 40 -10 52 -10 12 0 30 -4 40 -10 19 -10 108 -31 134
-31 10 0 20 -4 23 -10 4 -5 19 -9 36 -9 16 0 29 -4 29 -10 0 -5 8 -10 17 -10
9 0 46 -9 82 -21 69 -22 84 -27 141 -52 19 -8 59 -23 88 -33 28 -10 52 -22 52
-26 0 -5 7 -8 15 -8 8 0 32 -9 52 -20 21 -11 46 -20 55 -20 10 0 18 -3 18 -7
0 -5 33 -24 73 -43 39 -19 74 -38 75 -42 2 -5 9 -8 16 -8 6 0 22 -7 35 -16 18
-13 20 -18 10 -25 -8 -5 -18 -9 -24 -9 -5 0 -3 5 5 10 13 8 12 10 -4 10 -11 0
-16 3 -13 7 10 9 -105 61 -123 56 -13 -4 -13 -4 0 6 13 9 13 11 -2 11 -9 0
-18 3 -20 8 -10 23 -118 45 -118 23 0 -10 80 -35 100 -32 13 2 13 1 0 -8 -13
-9 -13 -11 3 -11 9 0 17 -5 17 -11 0 -7 10 -9 25 -6 14 2 23 2 20 -1 -2 -3 0
-11 6 -19 9 -10 8 -13 -4 -13 -8 0 -17 3 -19 8 -5 11 -84 52 -102 52 -9 0 -16
5 -16 10 0 6 -9 10 -20 10 -11 0 -20 5 -20 10 0 6 -7 10 -15 10 -8 0 -34 9
-57 19 -24 11 -68 31 -99 45 -31 13 -73 28 -93 31 -20 4 -39 11 -42 16 -3 5
-16 9 -30 9 -13 0 -24 4 -24 8 0 5 -44 19 -97 32 -54 13 -105 27 -113 31 -21
10 -143 37 -220 50 -156 25 -321 48 -375 52 -24 2 -14 4 27 5 36 1 75 5 85 8
15 5 15 4 3 -5 -11 -8 -2 -11 41 -11 31 0 59 -3 63 -7 4 -5 47 -13 94 -20 114
-15 192 -31 219 -45 12 -6 38 -8 58 -5 19 3 33 2 30 -3 -9 -14 23 -19 35 -5 9
11 4 15 -27 21 -21 5 -41 7 -45 6 -5 -1 -8 3 -8 9 0 8 -15 10 -44 7 -33 -4
-43 -2 -39 7 3 10 -14 15 -64 20 -37 3 -80 11 -95 17 -15 5 -46 7 -70 4 -31
-4 -36 -3 -18 3 19 7 9 9 -43 10 -48 1 -66 4 -61 12 5 9 -20 11 -94 7 -56 -3
-103 -1 -104 4 -6 16 -622 8 -651 -9 -8 -5 -151 -27 -247 -40 -25 -3 -42 -2
-38 3 10 10 230 42 341 50 48 4 90 11 93 16 7 11 528 4 649 -10z m-170 -32
c12 -5 -66 -9 -195 -9 -129 0 -207 4 -195 9 11 5 99 9 195 9 96 0 184 -4 195
-9z m-520 -21 c-49 -5 -112 -13 -138 -19 -26 -5 -64 -10 -83 -10 -19 0 -42 -4
-52 -9 -9 -5 -51 -14 -92 -20 -111 -16 -190 -34 -190 -43 0 -4 -10 -8 -23 -8
-25 0 -148 -35 -184 -52 -11 -6 -27 -8 -35 -5 -7 3 -3 6 10 6 12 1 22 5 22 10
0 5 20 12 45 15 24 4 47 11 50 16 3 4 28 11 55 15 27 4 52 11 56 16 3 5 18 9
34 9 16 0 31 4 34 9 3 4 29 11 58 15 28 4 57 10 62 14 13 8 5 7 101 16 44 4
89 11 100 16 22 11 86 16 190 17 70 0 70 0 -20 -8z m-430 -16 c-16 -3 -34 -8
-40 -13 -5 -4 -31 -11 -57 -14 -26 -4 -50 -11 -53 -17 -4 -5 -18 -9 -33 -8
-35 1 70 37 110 38 15 1 30 6 33 11 3 6 21 9 38 9 l32 -2 -30 -4z m-234 -64
c-16 -6 -28 -6 -35 1 -7 7 1 10 25 9 32 0 33 -1 10 -10z m-61 -16 c-14 -3 -29
-9 -34 -14 -6 -5 -17 -9 -25 -9 -10 1 -7 6 9 15 14 8 36 14 50 13 l25 -1 -25
-4z m-83 -29 c-3 -3 -12 -4 -19 -1 -8 3 -5 6 6 6 11 1 17 -2 13 -5z m-42 -14
c-3 -5 -13 -10 -21 -10 -8 0 -12 5 -9 10 3 6 13 10 21 10 8 0 12 -4 9 -10z
m-52 -17 c-7 -2 -19 -2 -25 0 -7 3 -2 5 12 5 14 0 19 -2 13 -5z m82 -22 c-6
-5 -26 -12 -45 -15 l-35 -6 30 14 c34 16 64 21 50 7z m-191 -21 c-5 -5 -25
-12 -44 -15 -35 -5 -35 -5 5 9 51 18 51 18 39 6z m92 -15 c-11 -8 -28 -15 -37
-15 -10 0 -19 -4 -21 -9 -1 -5 -19 -12 -38 -15 l-35 -7 40 20 c22 11 48 20 57
21 9 0 20 5 23 10 3 6 12 10 18 10 7 0 3 -7 -7 -15z m-220 -40 c-11 -8 -25
-15 -30 -15 -6 1 0 7 14 15 32 19 40 18 16 0z m-51 -25 c-3 -5 -10 -10 -16
-10 -5 0 -9 5 -9 10 0 6 7 10 16 10 8 0 12 -4 9 -10z m120 0 c-11 -5 -27 -9
-35 -9 -9 0 -8 4 5 9 11 5 27 9 35 9 9 0 8 -4 -5 -9z m-158 -16 c-3 -3 -12 -4
-19 -1 -8 3 -5 6 6 6 11 1 17 -2 13 -5z m65 -25 c-24 -11 -46 -18 -48 -16 -6
6 58 37 76 36 8 0 -5 -9 -28 -20z m-62 -23 c0 -3 -4 -8 -10 -11 -5 -3 -10 -1
-10 4 0 6 5 11 10 11 6 0 10 -2 10 -4z m-123 -12 c-3 -3 -12 -4 -19 -1 -8 3
-5 6 6 6 11 1 17 -2 13 -5z m81 -11 c-10 -2 -18 -9 -18 -14 0 -5 -5 -9 -11 -9
-8 0 -8 5 1 15 7 8 20 14 29 14 13 -1 13 -2 -1 -6z m-148 -28 c-7 -8 -17 -15
-23 -15 -6 0 -2 7 9 15 25 19 30 19 14 0z m3436 -11 c-5 -13 23 -28 56 -29 19
0 38 -15 19 -15 -7 0 -9 -5 -6 -10 5 -8 11 -8 20 0 8 7 15 7 19 1 3 -5 0 -12
-6 -15 -15 -7 27 -1 57 9 13 4 29 -2 45 -17 14 -13 45 -34 70 -48 25 -13 55
-34 68 -47 13 -13 27 -23 31 -23 5 0 23 -13 41 -30 18 -16 35 -30 39 -30 3 0
17 -10 31 -22 14 -13 42 -34 62 -48 21 -14 38 -28 38 -32 0 -12 -10 -9 -26 7
-17 17 -39 21 -29 5 3 -6 -1 -7 -9 -4 -9 3 -16 9 -16 14 0 4 -10 12 -22 19
-23 11 -23 11 2 5 22 -6 23 -5 11 10 -8 9 -21 14 -28 11 -18 -6 -58 25 -58 45
0 8 -16 20 -35 27 -19 7 -28 12 -20 13 13 1 13 2 0 7 -8 3 -26 17 -39 30 -28
25 -41 29 -41 12 0 -5 -4 -7 -10 -4 -5 3 -10 1 -10 -4 0 -6 2 -11 4 -11 2 0
12 -3 22 -7 13 -5 15 -3 9 7 -5 9 -4 11 4 6 6 -4 8 -12 5 -18 -5 -8 -1 -9 10
-5 12 5 16 3 13 -5 -2 -7 5 -21 16 -30 22 -19 42 -24 32 -8 -3 6 -1 10 4 10
13 0 14 -10 3 -27 -5 -9 -20 -2 -51 22 -24 19 -47 35 -51 35 -4 0 -17 8 -29
19 l-21 19 26 6 c25 7 26 8 8 21 -22 17 -38 19 -29 5 3 -6 -1 -7 -9 -4 -9 3
-13 11 -10 16 4 6 0 14 -7 19 -8 5 -17 3 -21 -4 -12 -19 -10 -25 12 -32 11 -3
20 -10 20 -15 0 -10 -56 18 -79 39 -14 13 -13 14 10 8 19 -5 26 -3 26 9 0 12
-7 14 -32 10 -41 -8 -86 10 -139 57 -11 9 -25 17 -32 17 -7 0 -16 5 -20 11 -4
8 1 9 16 4 15 -5 20 -4 16 4 -5 7 -1 9 9 5 9 -4 14 -13 11 -20z m-3381 -13
c-3 -6 -14 -10 -23 -10 -15 1 -15 2 1 6 9 2 17 9 17 15 0 6 3 9 6 5 3 -3 3
-10 -1 -16z m-105 -1 c-19 -13 -30 -13 -30 0 0 6 10 10 23 10 18 0 19 -2 7
-10z m3590 2 c0 -5 12 -14 26 -21 15 -6 24 -14 22 -17 -5 -5 -78 34 -78 42 0
2 7 4 15 4 8 0 15 -4 15 -8z m-3635 -32 c-3 -5 -12 -10 -18 -10 -7 0 -6 4 3
10 19 12 23 12 15 0z m115 6 c0 -2 -9 -6 -20 -9 -11 -3 -18 -1 -14 4 5 9 34
13 34 5z m-50 -34 c0 -4 -9 -8 -19 -8 -15 0 -17 3 -9 13 10 12 28 9 28 -5z
m-220 -72 c-8 -5 -19 -10 -25 -10 -5 0 -3 5 5 10 8 5 20 10 25 10 6 0 3 -5 -5
-10z m80 -10 c-8 -5 -19 -10 -25 -10 -5 0 -3 5 5 10 8 5 20 10 25 10 6 0 3 -5
-5 -10z m-40 -24 c0 -2 -7 -7 -16 -10 -8 -3 -12 -2 -9 4 6 10 25 14 25 6z
m-75 -55 c-3 -6 -11 -11 -16 -11 -5 0 -4 6 3 14 14 16 24 13 13 -3z m-35 -20
c0 -5 -7 -12 -16 -15 -14 -5 -15 -4 -4 9 14 17 20 19 20 6z m4192 -46 c12 -8
19 -17 16 -21 -7 -7 -68 45 -68 58 0 5 7 2 15 -6 9 -9 26 -22 37 -31z m-4247
3 c-11 -6 -29 -20 -40 -31 -18 -16 -68 -48 -55 -34 23 24 94 77 103 77 7 0 3
-6 -8 -12z m-95 -12 c0 -2 -7 -7 -16 -10 -8 -3 -12 -2 -9 4 6 10 25 14 25 6z
m4428 -63 c15 -14 36 -18 29 -5 -10 15 49 7 68 -10 53 -46 171 -156 194 -181
13 -15 31 -25 38 -22 8 2 11 0 8 -5 -3 -5 19 -36 50 -70 97 -106 59 -77 -64
48 -98 99 -123 120 -141 115 -21 -5 -18 -10 28 -55 28 -27 55 -47 60 -44 5 3
20 -6 33 -21 23 -25 23 -25 2 -12 -13 8 -23 18 -23 24 0 5 -4 4 -8 -3 -6 -9
-31 10 -88 64 -43 41 -78 80 -76 86 1 5 -2 7 -8 3 -6 -4 -23 6 -38 22 -15 15
-48 44 -74 63 -26 19 -48 39 -48 44 0 8 19 -5 58 -41z m-4503 -62 c-3 -6 -11
-11 -16 -11 -5 0 -4 6 3 14 14 16 24 13 13 -3z m-75 5 c0 -2 -7 -9 -15 -16
-13 -11 -14 -10 -9 4 5 14 24 23 24 12z m50 -30 c0 -2 -7 -7 -16 -10 -8 -3
-12 -2 -9 4 6 10 25 14 25 6z m-30 -30 c0 -2 -7 -7 -16 -10 -8 -3 -12 -2 -9 4
6 10 25 14 25 6z m4795 -65 c-6 -5 -25 10 -25 20 0 5 6 4 14 -3 8 -7 12 -15
11 -17z m-4958 -103 c-3 -8 -6 -5 -6 6 -1 11 2 17 5 13 3 -3 4 -12 1 -19z
m5013 18 c0 -3 -4 -8 -10 -11 -5 -3 -10 -1 -10 4 0 6 5 11 10 11 6 0 10 -2 10
-4z m30 -23 c0 -5 29 -39 65 -78 36 -38 65 -73 65 -79 0 -5 -9 2 -21 15 -11
13 -45 49 -75 81 -55 57 -62 68 -44 68 6 0 10 -3 10 -7z m-2375 -34 c77 -6
206 -24 287 -40 81 -16 156 -29 168 -29 12 0 18 -4 15 -10 -3 -6 4 -10 16 -10
32 0 144 -36 231 -74 20 -9 39 -16 43 -16 10 0 193 -92 275 -138 102 -58 118
-68 153 -97 7 -6 30 -22 52 -36 95 -62 276 -224 379 -339 73 -82 119 -139 130
-158 6 -9 20 -28 33 -42 13 -14 23 -28 23 -31 0 -3 11 -19 25 -35 14 -16 25
-33 25 -37 0 -10 42 -71 53 -75 4 -2 7 -10 7 -17 0 -8 6 -20 13 -27 19 -20
125 -242 156 -328 19 -50 27 -72 39 -100 6 -14 13 -34 16 -45 24 -95 28 -105
44 -106 10 0 12 -3 5 -6 -15 -6 -17 -26 -4 -51 5 -9 19 -78 31 -152 11 -74 25
-157 30 -183 13 -63 13 -465 0 -536 -5 -31 -18 -108 -30 -171 -11 -63 -20
-130 -20 -148 0 -17 -4 -32 -10 -32 -5 0 -10 -8 -10 -17 0 -22 -60 -205 -95
-293 -15 -36 -50 -112 -79 -170 -28 -58 -50 -112 -49 -120 2 -9 21 -23 42 -32
21 -9 45 -23 52 -30 8 -7 35 -24 62 -37 26 -13 47 -28 47 -32 0 -8 -109 47
-120 60 -3 3 -30 19 -60 35 -58 31 -172 97 -180 106 -3 3 -34 20 -70 39 -36
19 -67 37 -70 40 -3 4 -22 15 -42 24 -20 10 -43 23 -50 30 -7 6 -42 27 -78 46
-36 19 -67 37 -70 40 -3 3 -18 13 -35 21 -16 8 -49 27 -72 42 -23 15 -44 28
-47 28 -4 0 -36 18 -72 40 -36 22 -67 40 -69 40 -2 0 -45 25 -96 55 -96 57
-119 65 -119 41 0 -22 -110 -165 -186 -242 -72 -73 -164 -147 -224 -180 -19
-10 -37 -22 -40 -25 -8 -9 -148 -74 -215 -99 -71 -27 -119 -37 -240 -51 -49
-5 -112 -13 -138 -18 -26 -4 -50 -4 -53 1 -3 4 -29 8 -57 8 -29 1 -83 5 -122
11 -38 6 -86 12 -105 13 -19 0 -39 6 -45 12 -5 6 -41 22 -80 35 -38 13 -101
41 -139 61 -38 21 -73 38 -77 38 -5 0 -18 8 -28 18 -32 28 -50 42 -56 42 -9 0
-66 52 -160 146 -142 142 -263 339 -301 489 -3 11 -9 29 -14 40 -42 101 -62
396 -36 548 10 54 19 110 21 125 1 15 9 41 15 57 19 46 27 67 40 105 15 45 47
109 65 134 12 16 17 17 30 6 8 -7 18 -10 22 -6 3 3 2 6 -3 6 -5 0 -17 7 -27
14 -20 16 -23 9 36 78 9 12 17 25 17 29 0 4 6 14 13 21 6 7 25 31 42 53 132
176 394 354 614 417 340 97 698 56 981 -114 110 -66 188 -126 269 -208 63 -64
155 -181 181 -230 7 -14 16 -27 19 -30 9 -7 78 -161 95 -212 43 -129 76 -316
76 -434 0 -164 -56 -402 -131 -558 -33 -67 -34 -76 -16 -76 7 0 22 -8 33 -18
10 -9 40 -28 67 -41 26 -13 47 -28 47 -33 0 -4 8 -8 18 -8 9 0 28 -9 42 -20
14 -11 30 -20 36 -20 5 0 19 -8 30 -18 10 -9 40 -28 67 -41 26 -13 47 -28 47
-33 0 -4 9 -8 20 -8 11 0 20 -3 20 -8 0 -4 17 -15 39 -24 21 -9 45 -23 52 -30
8 -7 35 -24 62 -37 26 -13 47 -27 47 -30 0 -3 25 -17 55 -31 30 -14 55 -28 55
-32 0 -5 6 -8 14 -8 8 0 16 -3 18 -7 2 -5 24 -19 51 -32 26 -13 47 -28 47 -33
0 -4 9 -8 20 -8 11 0 20 -4 20 -10 0 -23 42 -8 58 20 9 16 24 30 32 31 10 0
11 2 3 6 -14 5 -18 29 -5 35 9 4 47 83 64 133 7 22 15 42 18 45 7 7 29 67 41
110 6 19 14 44 18 55 34 77 66 232 95 450 32 239 10 620 -49 840 -9 33 -20 78
-26 100 -15 61 -70 219 -80 230 -5 5 -9 16 -9 23 0 15 -118 263 -129 272 -3 3
-15 21 -25 40 -30 55 -108 173 -133 200 -13 14 -23 28 -23 32 0 3 -6 13 -13
20 -7 7 -28 33 -47 58 -77 98 -315 325 -410 390 -19 13 -37 27 -40 30 -13 16
-165 110 -176 110 -8 0 -14 4 -14 9 0 9 -186 104 -295 149 -38 16 -110 42
-160 58 -49 15 -92 32 -93 36 -2 5 -7 6 -10 4 -4 -2 -27 0 -52 5 -311 63 -303
63 -555 63 -227 1 -292 -4 -435 -35 -182 -38 -344 -85 -460 -133 -94 -40 -284
-137 -288 -147 -2 -5 -9 -9 -16 -9 -17 0 -202 -127 -289 -198 -84 -68 -258
-239 -312 -307 -22 -27 -45 -54 -51 -60 -6 -5 -26 -32 -45 -60 -19 -27 -37
-52 -40 -55 -14 -12 -69 -100 -69 -109 0 -6 -4 -11 -9 -11 -10 0 -37 -61 -33
-75 2 -5 -6 -1 -17 9 -12 11 -21 14 -21 8 0 -7 5 -12 10 -12 12 0 14 -27 2
-32 -12 -5 -132 -257 -132 -276 0 -7 -4 -20 -9 -30 -20 -38 -49 -120 -61 -172
-7 -30 -16 -64 -20 -75 -28 -70 -57 -253 -70 -440 -13 -189 -12 -186 -19 -130
-4 28 -4 55 0 60 3 6 9 80 13 165 4 85 11 157 15 160 5 3 13 38 16 77 4 40 11
70 16 67 11 -6 11 23 0 50 -5 14 -10 16 -15 8 -4 -7 -4 -16 -1 -22 3 -5 2 -10
-3 -10 -6 0 -12 -16 -14 -35 -2 -19 0 -35 4 -35 4 0 8 -5 8 -10 0 -6 -5 -9
-12 -8 -12 3 -22 -50 -47 -252 -6 -47 -12 -170 -13 -275 -1 -170 -2 -179 -8
-90 -14 198 14 505 65 705 9 36 22 88 28 115 6 28 14 52 17 55 3 3 16 37 29
75 29 88 32 96 70 173 17 35 31 70 31 77 0 7 3 15 8 17 10 5 55 96 55 113 0 8
9 17 19 21 10 3 16 9 13 14 -3 5 2 15 10 23 8 9 15 18 15 22 0 8 100 156 117
173 7 7 13 16 13 20 0 17 84 97 99 94 14 -2 14 -1 1 7 -17 11 -8 22 136 165
90 90 143 139 193 176 19 14 40 31 47 38 7 6 17 12 22 12 6 0 12 4 14 8 4 11
94 72 105 72 5 0 15 9 23 20 8 11 20 20 26 20 7 0 19 6 26 13 7 6 58 35 113
62 55 28 102 53 103 58 2 4 9 7 17 7 11 0 35 9 135 52 52 22 67 27 140 49 41
12 84 26 94 31 11 6 31 11 45 12 14 2 64 10 111 19 167 33 186 36 285 45 151
13 207 13 360 1z m-2805 -14 c-7 -9 -15 -13 -19 -10 -3 3 1 10 9 15 21 14 24
12 10 -5z m53 -20 c-3 -9 -8 -14 -10 -11 -3 3 -2 9 2 15 9 16 15 13 8 -4z
m-30 -30 c-3 -9 -8 -14 -10 -11 -3 3 -2 9 2 15 9 16 15 13 8 -4z m5364 -68
c19 -21 32 -41 29 -45 -4 -3 -13 3 -20 14 -8 11 -30 37 -50 59 -19 22 -36 44
-36 49 0 5 9 -2 21 -15 11 -13 36 -41 56 -62z m-5396 30 c-10 -9 -11 -8 -5 6
3 10 9 15 12 12 3 -3 0 -11 -7 -18z m5449 -179 c50 -68 100 -136 112 -152 23
-29 41 -58 55 -86 4 -8 13 -21 20 -28 7 -7 13 -20 13 -28 0 -8 4 -14 10 -14 5
0 12 -11 16 -25 3 -14 10 -25 15 -25 5 0 9 -5 9 -11 0 -8 -5 -8 -15 1 -8 7
-15 19 -15 26 0 8 -4 14 -9 14 -5 0 -14 12 -20 28 -10 25 -26 52 -44 76 -5 6
-35 49 -67 96 -32 47 -63 90 -67 95 -5 6 -20 26 -33 45 -14 19 -29 40 -35 46
-44 50 -54 64 -45 64 6 0 51 -55 100 -122z m-5527 87 c-3 -9 -8 -14 -10 -11
-3 3 -2 9 2 15 9 16 15 13 8 -4z m5586 -83 c44 -63 16 -40 -33 27 -26 36 -35
53 -19 36 16 -16 39 -45 52 -63z m-5616 43 c-3 -9 -8 -14 -10 -11 -3 3 -2 9 2
15 9 16 15 13 8 -4z m-30 -40 c-3 -9 -8 -14 -10 -11 -3 3 -2 9 2 15 9 16 15
13 8 -4z m5696 -75 c4 0 13 -12 20 -27 l12 -28 -25 30 c-14 17 -25 37 -24 45
0 10 2 10 5 -2 2 -10 8 -18 12 -18z m-5806 -75 c-3 -9 -8 -14 -10 -11 -3 3 -2
9 2 15 9 16 15 13 8 -4z m5889 -43 c9 -18 15 -32 13 -32 -6 0 -55 73 -55 83 0
13 23 -15 42 -51z m62 -112 c-7 -6 -24 22 -23 40 0 9 6 5 14 -10 7 -14 11 -27
9 -30z m-6061 -15 c-3 -9 -8 -14 -10 -11 -3 3 -2 9 2 15 9 16 15 13 8 -4z
m6086 -25 c11 -24 11 -24 -3 -6 -9 11 -16 24 -16 30 0 12 5 7 19 -24z m-6179
-25 c0 -8 -2 -15 -4 -15 -2 0 -6 7 -10 15 -3 8 -1 15 4 15 6 0 10 -7 10 -15z
m62 -10 c-2 -14 -8 -25 -13 -25 -12 0 -11 7 1 31 14 26 18 24 12 -6z m6155 -1
c-3 -3 -12 -4 -19 -1 -8 3 -5 6 6 6 11 1 17 -2 13 -5z m-38 -45 c17 -50 13
-57 -9 -16 -23 42 -24 47 -11 47 5 0 14 -14 20 -31z m84 -64 c36 -66 67 -135
60 -135 -8 0 -53 92 -53 109 0 5 -3 11 -7 13 -9 4 -53 91 -53 104 1 5 9 -7 18
-26 10 -19 25 -48 35 -65z m23 -162 c-2 -2 -10 10 -17 26 -8 17 -17 31 -20 31
-4 0 -10 12 -14 27 -3 15 -10 30 -15 33 -5 3 -12 19 -15 35 -4 17 14 -10 39
-59 25 -49 44 -91 42 -93z m-6309 125 c-3 -8 -6 -5 -6 6 -1 11 2 17 5 13 3 -3
4 -12 1 -19z m3540 -100 c-3 -8 -6 -5 -6 6 -1 11 2 17 5 13 3 -3 4 -12 1 -19z
m2834 -38 c5 0 9 -8 9 -17 -1 -16 -2 -16 -15 1 -8 11 -14 27 -14 35 1 13 2 12
6 -1 2 -10 9 -18 14 -18z m-27 -70 c7 -34 7 -34 -14 9 -23 49 -27 75 -6 46 7
-11 16 -36 20 -55z m23 -52 c-3 -8 -6 -5 -6 6 -1 11 2 17 5 13 3 -3 4 -12 1
-19z m-3590 -10 c-3 -8 -6 -5 -6 6 -1 11 2 17 5 13 3 -3 4 -12 1 -19z m3640 0
c-3 -8 -6 -5 -6 6 -1 11 2 17 5 13 3 -3 4 -12 1 -19z m-17 -72 c0 -6 -7 2 -15
18 -8 15 -15 33 -15 40 0 6 7 -2 15 -18 8 -15 15 -33 15 -40z m37 32 c-3 -7
-5 -2 -5 12 0 14 2 19 5 13 2 -7 2 -19 0 -25z m-17 -69 c0 -5 -4 -9 -10 -9 -5
0 -10 7 -10 16 0 8 5 12 10 9 6 -3 10 -10 10 -16z m-6653 -11 c-3 -8 -6 -5 -6
6 -1 11 2 17 5 13 3 -3 4 -12 1 -19z m6716 -28 c3 -11 2 -20 -3 -20 -4 0 -10
11 -12 25 -6 29 7 25 15 -5z m-41 -27 c6 -13 8 -26 5 -29 -8 -8 -27 40 -26 64
0 14 2 14 6 2 2 -8 9 -25 15 -37z m-6645 -25 c-3 -8 -6 -5 -6 6 -1 11 2 17 5
13 3 -3 4 -12 1 -19z m6700 -10 c-3 -7 -5 -2 -5 12 0 14 2 19 5 13 2 -7 2 -19
0 -25z m-40 -30 c-3 -8 -6 -5 -6 6 -1 11 2 17 5 13 3 -3 4 -12 1 -19z m63 -10
c0 -19 -2 -20 -10 -8 -13 19 -13 30 0 30 6 0 10 -10 10 -22z m-40 -34 c0 -8
-4 -12 -10 -9 -5 3 -10 13 -10 21 0 8 5 12 10 9 6 -3 10 -13 10 -21z m-6773
-16 c-3 -8 -6 -5 -6 6 -1 11 2 17 5 13 3 -3 4 -12 1 -19z m6820 0 c-3 -8 -6
-5 -6 6 -1 11 2 17 5 13 3 -3 4 -12 1 -19z m-40 -45 c-3 -10 -5 -4 -5 12 0 17
2 24 5 18 2 -7 2 -21 0 -30z m-6750 -55 c-3 -7 -5 -2 -5 12 0 14 2 19 5 13 2
-7 2 -19 0 -25z m6770 0 c-3 -7 -5 -2 -5 12 0 14 2 19 5 13 2 -7 2 -19 0 -25z
m50 -10 c-3 -7 -5 -2 -5 12 0 14 2 19 5 13 2 -7 2 -19 0 -25z m-34 -23 c4 -8
2 -17 -3 -20 -6 -4 -10 3 -10 14 0 25 6 27 13 6z m-6806 -32 c-3 -10 -5 -4 -5
12 0 17 2 24 5 18 2 -7 2 -21 0 -30z m6860 0 c-3 -10 -5 -4 -5 12 0 17 2 24 5
18 2 -7 2 -21 0 -30z m-40 -40 c-3 -10 -5 -4 -5 12 0 17 2 24 5 18 2 -7 2 -21
0 -30z m-6890 -25 c-3 -7 -5 -2 -5 12 0 14 2 19 5 13 2 -7 2 -19 0 -25z m6940
-5 c-3 -10 -5 -4 -5 12 0 17 2 24 5 18 2 -7 2 -21 0 -30z m-40 -50 c-3 -10 -5
-2 -5 17 0 19 2 27 5 18 2 -10 2 -26 0 -35z m-6860 15 c-3 -8 -6 -5 -6 6 -1
11 2 17 5 13 3 -3 4 -12 1 -19z m-60 -30 c-3 -8 -6 -5 -6 6 -1 11 2 17 5 13 3
-3 4 -12 1 -19z m2198 -18 c6 -4 50 -31 100 -59 49 -28 83 -51 76 -51 -7 0
-53 25 -102 55 -49 30 -93 55 -98 55 -6 0 -13 4 -16 10 -6 10 22 3 40 -10z
m4742 -27 c-3 -10 -5 -4 -5 12 0 17 2 24 5 18 2 -7 2 -21 0 -30z m50 -20 c-3
-10 -5 -4 -5 12 0 17 2 24 5 18 2 -7 2 -21 0 -30z m-29 -58 c0 -16 -2 -15 -8
5 -11 34 -11 60 0 35 5 -11 8 -29 8 -40z m-6931 -12 c-3 -10 -5 -2 -5 17 0 19
2 27 5 18 2 -10 2 -26 0 -35z m6983 -3 c0 -22 -2 -40 -4 -40 -2 0 -6 18 -8 40
-2 22 0 40 4 40 5 0 8 -18 8 -40z m-43 -67 c-3 -10 -5 -2 -5 17 0 19 2 27 5
18 2 -10 2 -26 0 -35z m-7010 -25 c-3 -8 -6 -5 -6 6 -1 11 2 17 5 13 3 -3 4
-12 1 -19z m7072 -21 c0 -27 -2 -29 -9 -12 -12 28 -12 57 0 50 6 -3 10 -21 9
-38z m-40 -62 c0 -31 -2 -36 -9 -20 -13 29 -13 94 0 75 5 -8 9 -33 9 -55z
m-1662 49 c-3 -3 -12 -4 -19 -1 -8 3 -5 6 6 6 11 1 17 -2 13 -5z m-5330 -26
c-3 -8 -6 -5 -6 6 -1 11 2 17 5 13 3 -3 4 -12 1 -19z m-60 -90 c-2 -13 -4 -3
-4 22 0 25 2 35 4 23 2 -13 2 -33 0 -45z m7100 -10 c-2 -13 -4 -5 -4 17 -1 22
1 32 4 23 2 -10 2 -28 0 -40z m-40 -100 c-2 -24 -4 -7 -4 37 0 44 2 63 4 43 2
-21 2 -57 0 -80z m-2190 86 c-3 -3 -12 -4 -19 -1 -8 3 -5 6 6 6 11 1 17 -2 13
-5z m-4830 -46 c-3 -8 -6 -5 -6 6 -1 11 2 17 5 13 3 -3 4 -12 1 -19z m7080
-200 c-2 -18 -4 -4 -4 32 0 36 2 50 4 33 2 -18 2 -48 0 -65z m-7087 -133 c1
-103 -2 -190 -5 -193 -3 -3 -5 84 -5 193 0 109 2 196 5 193 3 -3 5 -90 5 -193z
m7047 -72 c-1 -49 -3 -9 -3 87 0 96 2 136 3 88 2 -49 2 -127 0 -175z m50 65
c-3 -8 -6 -5 -6 6 -1 11 2 17 5 13 3 -3 4 -12 1 -19z m-5945 -20 c-9 -9 -15
-9 -24 0 -9 9 -7 12 12 12 19 0 21 -3 12 -12z m7 -162 c1 -55 -1 -97 -3 -95
-2 2 -6 58 -9 124 -3 69 -2 109 3 95 4 -14 8 -70 9 -124z m5928 -18 c-2 -18
-4 -4 -4 32 0 36 2 50 4 33 2 -18 2 -48 0 -65z m-5968 -65 c-1 -65 -5 -61 -12
10 -2 26 -1 47 4 47 5 0 9 -26 8 -57z m5908 -95 c-2 -24 -4 -7 -4 37 0 44 2
63 4 43 2 -21 2 -57 0 -80z m-5844 -15 c3 -43 9 -94 11 -113 l6 -35 -9 35
c-29 115 -40 207 -23 196 5 -3 12 -40 15 -83z m-40 -68 c4 -61 4 -69 -3 -35
-20 105 -23 135 -12 125 6 -5 13 -46 15 -90z m5924 13 c-2 -13 -4 -3 -4 22 0
25 2 35 4 23 2 -13 2 -33 0 -45z m-7100 -10 c-2 -13 -4 -3 -4 22 0 25 2 35 4
23 2 -13 2 -33 0 -45z m5150 36 c-3 -3 -12 -4 -19 -1 -8 3 -5 6 6 6 11 1 17
-2 13 -5z m1894 -97 c-13 -13 -15 15 -3 53 7 24 7 23 10 -9 2 -18 -1 -38 -7
-44z m38 -61 c-9 -8 -10 -7 -5 7 3 10 7 28 7 40 2 16 3 14 6 -7 3 -16 -1 -34
-8 -40z m-5882 -13 c-3 -10 -5 -2 -5 17 0 19 2 27 5 18 2 -10 2 -26 0 -35z
m52 -10 c1 -13 5 -23 9 -23 4 0 12 -24 18 -54 5 -30 6 -52 2 -50 -4 3 -8 12
-8 19 0 8 -6 34 -14 57 -18 55 -30 122 -17 93 5 -11 10 -30 10 -42z m5778 -15
c-3 -7 -5 -2 -5 12 0 14 2 19 5 13 2 -7 2 -19 0 -25z m-5820 -20 c-3 -8 -6 -5
-6 6 -1 11 2 17 5 13 3 -3 4 -12 1 -19z m5860 -35 c-3 -10 -5 -2 -5 17 0 19 2
27 5 18 2 -10 2 -26 0 -35z m-6980 -10 c-3 -10 -5 -4 -5 12 0 17 2 24 5 18 2
-7 2 -21 0 -30z m1140 -20 c-3 -10 -5 -4 -5 12 0 17 2 24 5 18 2 -7 2 -21 0
-30z m23 -55 c0 -5 -4 -8 -10 -8 -5 0 -10 10 -10 23 0 18 2 19 10 7 5 -8 10
-18 10 -22z m5797 10 c-3 -8 -6 -5 -6 6 -1 11 2 17 5 13 3 -3 4 -12 1 -19z
m-50 -25 c-3 -10 -5 -4 -5 12 0 17 2 24 5 18 2 -7 2 -21 0 -30z m-5722 -82
c-6 -5 -25 47 -25 67 1 9 7 -1 15 -23 8 -21 12 -41 10 -44z m-1218 47 c-3 -8
-6 -5 -6 6 -1 11 2 17 5 13 3 -3 4 -12 1 -19z m1250 0 c-3 -8 -6 -5 -6 6 -1
11 2 17 5 13 3 -3 4 -12 1 -19z m5670 -35 c-3 -10 -5 -4 -5 12 0 17 2 24 5 18
2 -7 2 -21 0 -30z m-5647 -3 c0 -11 -2 -20 -4 -20 -2 0 -6 9 -9 20 -3 11 -1
20 4 20 5 0 9 -9 9 -20z m5687 -32 c-3 -8 -6 -5 -6 6 -1 11 2 17 5 13 3 -3 4
-12 1 -19z m-6940 -20 c-3 -7 -5 -2 -5 12 0 14 2 19 5 13 2 -7 2 -19 0 -25z
m1210 10 c-3 -8 -6 -5 -6 6 -1 11 2 17 5 13 3 -3 4 -12 1 -19z m-1147 8 c0 -3
-4 -8 -10 -11 -5 -3 -10 -1 -10 4 0 6 5 11 10 11 6 0 10 -2 10 -4z m1210 -12
c0 -8 -4 -12 -10 -9 -5 3 -10 10 -10 16 0 5 5 9 10 9 6 0 10 -7 10 -16z m5617
-10 c-3 -3 -12 -4 -19 -1 -8 3 -5 6 6 6 11 1 17 -2 13 -5z m-5657 -20 c0 -8
-4 -12 -10 -9 -5 3 -10 10 -10 16 0 5 5 9 10 9 6 0 10 -7 10 -16z m5702 -9
c-2 -14 -6 -25 -8 -25 -2 0 -4 11 -4 25 0 14 4 25 9 25 4 0 6 -11 3 -25z
m-5643 -25 c11 -24 11 -24 -3 -6 -9 11 -16 24 -16 30 0 12 5 7 19 -24z m-52
-12 c-3 -8 -6 -5 -6 6 -1 11 2 17 5 13 3 -3 4 -12 1 -19z m5670 -40 c-3 -7 -5
-2 -5 12 0 14 2 19 5 13 2 -7 2 -19 0 -25z m-6820 -10 c-3 -7 -5 -2 -5 12 0
14 2 19 5 13 2 -7 2 -19 0 -25z m1182 -18 c0 -9 -4 -8 -9 5 -5 11 -9 27 -9 35
0 9 4 8 9 -5 5 -11 9 -27 9 -35z m38 28 c-3 -8 -6 -5 -6 6 -1 11 2 17 5 13 3
-3 4 -12 1 -19z m5550 0 c-3 -8 -6 -5 -6 6 -1 11 2 17 5 13 3 -3 4 -12 1 -19z
m-5523 -43 c5 -22 4 -26 -4 -15 -5 8 -10 24 -10 34 0 26 6 18 14 -19z m5503
-27 c-3 -7 -5 -2 -5 12 0 14 2 19 5 13 2 -7 2 -19 0 -25z m-6780 -30 c-3 -8
-6 -5 -6 6 -1 11 2 17 5 13 3 -3 4 -12 1 -19z m1240 0 c-3 -8 -6 -5 -6 6 -1
11 2 17 5 13 3 -3 4 -12 1 -19z m71 -23 c-3 -3 -9 2 -12 12 -6 14 -5 15 5 6 7
-7 10 -15 7 -18z m-39 -30 c0 -5 -4 -3 -9 5 -5 8 -9 22 -9 30 0 16 17 -16 18
-35z m79 -15 c13 0 13 -3 4 -12 -10 -10 -15 -10 -22 2 -5 8 -9 22 -9 30 1 11
3 10 6 -2 2 -10 12 -18 21 -18z m-49 -45 c0 -5 -4 -3 -9 5 -5 8 -9 22 -9 30 0
16 17 -16 18 -35z m5488 13 c-3 -7 -5 -2 -5 12 0 14 2 19 5 13 2 -7 2 -19 0
-25z m-6700 0 c-3 -8 -6 -5 -6 6 -1 11 2 17 5 13 3 -3 4 -12 1 -19z m1303 -66
c0 -4 -9 7 -20 23 -11 17 -20 35 -20 40 0 6 9 -5 20 -23 11 -18 20 -36 20 -40z
m4065 38 c-3 -5 3 -10 14 -10 27 0 27 -24 -1 -62 l-21 -30 -13 28 c-12 24 -13
25 -7 4 9 -33 7 -71 -4 -79 -5 -3 -25 -28 -43 -56 -19 -27 -39 -55 -45 -61 -5
-6 -37 -45 -70 -87 -33 -42 -67 -79 -75 -82 -12 -5 -12 -4 -3 6 10 10 10 16 0
28 -10 12 -9 14 5 8 13 -4 15 -2 11 10 -4 11 -2 14 5 9 8 -5 10 -2 6 8 -3 9
-2 16 4 16 6 0 12 -5 14 -12 3 -7 7 -5 11 6 4 10 3 15 -3 11 -15 -9 -12 4 4
21 17 17 30 19 20 2 -4 -6 -3 -8 3 -5 6 4 9 22 7 41 -2 29 7 47 44 98 26 35
53 76 61 91 8 15 18 27 23 27 4 0 8 5 8 11 0 12 38 69 46 69 3 0 2 -4 -1 -10z
m-4101 -65 l17 -30 -20 24 c-12 13 -21 28 -21 34 0 12 0 11 24 -28z m5343 3
c-3 -8 -6 -5 -6 6 -1 11 2 17 5 13 3 -3 4 -12 1 -19z m-5277 -23 c0 -5 -5 -3
-10 5 -5 8 -10 20 -10 25 0 6 5 3 10 -5 5 -8 10 -19 10 -25z m49 -65 l23 -35
-26 30 c-14 17 -26 34 -26 39 0 11 0 11 29 -34z m5258 18 c-3 -8 -6 -5 -6 6
-1 11 2 17 5 13 3 -3 4 -12 1 -19z m-955 -5 c2 -5 24 -19 51 -32 26 -13 47
-28 47 -33 0 -4 9 -8 20 -8 11 0 20 -3 20 -8 0 -4 17 -15 39 -24 21 -9 45 -23
52 -30 8 -7 35 -24 62 -37 26 -13 47 -28 47 -33 0 -10 -17 -11 -22 0 -1 4 -23
18 -48 31 -25 14 -47 27 -50 30 -3 4 -34 22 -70 40 -36 19 -67 37 -70 40 -3 4
-26 18 -52 31 -27 14 -48 28 -48 32 0 10 17 10 22 1z m865 -75 c-3 -8 -6 -5
-6 6 -1 11 2 17 5 13 3 -3 4 -12 1 -19z m-5083 -54 c3 -8 2 -12 -4 -9 -6 3
-10 10 -10 16 0 14 7 11 14 -7z m3706 -14 c0 -6 -20 -31 -44 -57 -39 -40 -43
-50 -40 -84 2 -22 -1 -39 -6 -39 -6 0 -10 -7 -10 -15 0 -8 -4 -15 -8 -15 -4 0
-48 -38 -97 -86 -49 -47 -114 -104 -145 -126 -30 -23 -60 -47 -65 -52 -6 -6
-18 -15 -27 -21 -9 -5 -51 -34 -93 -62 -41 -29 -82 -53 -89 -53 -8 0 -16 -4
-18 -9 -1 -4 -14 -12 -28 -16 -34 -10 -25 -3 45 35 33 18 66 39 73 47 7 7 20
13 28 13 8 0 14 3 14 8 0 4 17 18 38 32 119 80 376 310 354 318 -9 3 -9 9 -2
23 7 13 7 19 0 19 -9 0 -3 9 48 68 13 15 33 39 45 54 25 31 27 33 27 18z
m-3716 -56 c3 -8 2 -12 -4 -9 -6 3 -10 10 -10 16 0 14 7 11 14 -7z m4666 -65
c0 -4 -18 2 -40 14 -22 12 -40 25 -40 29 0 4 18 -3 40 -14 22 -12 40 -25 40
-29z m-4632 16 c-3 -3 -9 2 -12 12 -6 14 -5 15 5 6 7 -7 10 -15 7 -18z m127
-55 c16 -20 13 -19 -13 4 -17 17 -32 34 -32 39 0 9 12 -3 45 -43z m4545 20 c0
-5 -4 -10 -10 -10 -5 0 -10 5 -10 10 0 6 5 10 10 10 6 0 10 -4 10 -10z m337
-22 c-3 -8 -6 -5 -6 6 -1 11 2 17 5 13 3 -3 4 -12 1 -19z m-237 -39 c0 -4 -18
2 -40 14 -22 12 -40 25 -40 29 0 4 18 -3 40 -14 22 -12 40 -25 40 -29z m-1236
15 c3 -8 2 -12 -4 -9 -6 3 -10 1 -10 -5 0 -6 -4 -9 -8 -6 -5 3 -22 -8 -37 -24
-16 -17 -33 -30 -37 -30 -9 0 73 88 83 89 4 1 10 -6 13 -15z m-3364 -10 c0 -8
-5 -12 -10 -9 -6 4 -8 11 -5 16 9 14 15 11 15 -7z m4640 -24 c0 -5 -4 -10 -10
-10 -5 0 -10 5 -10 10 0 6 5 10 10 10 6 0 10 -4 10 -10z m-4571 -52 c17 -27 8
-22 -30 19 -27 29 -28 32 -7 17 14 -10 31 -27 37 -36z m4669 11 c30 -9 42 -18
42 -31 0 -10 -3 -18 -6 -18 -9 0 -67 33 -82 48 -7 6 -18 12 -23 12 -5 0 -9 5
-9 10 0 6 6 7 18 1 9 -5 36 -15 60 -22z m-6193 -19 c-3 -5 -12 -10 -18 -10 -7
0 -6 4 3 10 19 12 23 12 15 0z m1470 -10 c3 -6 -1 -7 -9 -4 -18 7 -21 14 -7
14 6 0 13 -4 16 -10z m3165 -50 c-30 -27 -56 -47 -59 -45 -2 3 7 13 20 24 13
10 38 31 54 45 54 46 42 27 -15 -24z m1660 -2 c0 -5 -9 -3 -20 4 -11 7 -20 16
-20 20 0 5 9 3 20 -4 11 -7 20 -16 20 -20z m35 -18 c3 -5 1 -10 -4 -10 -6 0
-11 5 -11 10 0 6 2 10 4 10 3 0 8 -4 11 -10z m45 -20 c0 -5 -4 -10 -10 -10 -5
0 -10 5 -10 10 0 6 5 10 10 10 6 0 10 -4 10 -10z m-4705 -18 c-3 -3 -11 0 -18
7 -9 10 -8 11 6 5 10 -3 15 -9 12 -12z m-50 -22 c11 -17 -5 -11 -28 11 l-22
21 22 -11 c12 -6 25 -16 28 -21z m2925 6 c0 -2 -12 -11 -27 -20 l-28 -17 24
20 c23 21 31 25 31 17z m1890 -6 c0 -5 -2 -10 -4 -10 -3 0 -8 5 -11 10 -3 6
-1 10 4 10 6 0 11 -4 11 -10z m35 -20 c3 -5 1 -10 -4 -10 -6 0 -11 5 -11 10 0
6 2 10 4 10 3 0 8 -4 11 -10z m-4720 -18 c-3 -3 -11 0 -18 7 -9 10 -8 11 6 5
10 -3 15 -9 12 -12z m2735 1 c-1 -11 -70 -54 -70 -44 0 4 11 14 25 21 14 7 25
17 25 22 0 4 5 8 10 8 6 0 10 -3 10 -7z m2025 -3 c3 -5 1 -10 -4 -10 -6 0 -11
5 -11 10 0 6 2 10 4 10 3 0 8 -4 11 -10z m-412 -35 c-3 -9 -8 -14 -10 -11 -3
3 -2 9 2 15 9 16 15 13 8 -4z m477 -5 c0 -5 -2 -10 -4 -10 -3 0 -8 5 -11 10
-3 6 -1 10 4 10 6 0 11 -4 11 -10z m-2170 -4 c0 -9 -32 -36 -42 -36 -6 0 0 9
13 20 25 21 29 23 29 16z m-60 -52 c0 -2 -7 -4 -15 -4 -8 0 -15 4 -15 10 0 5
7 7 15 4 8 -4 15 -8 15 -10z m2321 -1 c13 -17 13 -17 -6 -3 -11 8 -22 16 -24
17 -2 2 0 3 6 3 6 0 17 -8 24 -17z m-2366 -23 c-3 -5 -12 -10 -18 -10 -7 0 -6
4 3 10 19 12 23 12 15 0z m2415 0 c0 -5 -2 -10 -4 -10 -3 0 -8 5 -11 10 -3 6
-1 10 4 10 6 0 11 -4 11 -10z m-4750 -10 c8 -5 11 -10 5 -10 -5 0 -17 5 -25
10 -8 5 -10 10 -5 10 6 0 17 -5 25 -10z m60 -30 c18 -12 2 -12 -25 0 -13 6
-15 9 -5 9 8 0 22 -4 30 -9z m2217 4 c-3 -3 -12 -4 -19 -1 -8 3 -5 6 6 6 11 1
17 -2 13 -5z m-2320 -10 c-3 -3 -12 -4 -19 -1 -8 3 -5 6 6 6 11 1 17 -2 13 -5z
m2273 -14 c-24 -15 -36 -11 -14 4 10 8 21 12 24 10 2 -3 -2 -9 -10 -14z m-17
-61 c-54 -27 -105 -48 -113 -48 -11 1 -10 3 3 6 9 2 17 9 17 14 0 5 7 9 15 9
8 0 32 9 52 20 21 11 43 20 50 20 7 0 13 5 13 10 0 6 7 10 15 10 8 0 15 4 15
10 0 5 7 7 15 4 10 -4 -20 -24 -82 -55z m-2083 41 c0 -5 -2 -10 -4 -10 -3 0
-8 5 -11 10 -3 6 -1 10 4 10 6 0 11 -4 11 -10z m2055 0 c-3 -5 -11 -10 -16
-10 -6 0 -7 5 -4 10 3 6 11 10 16 10 6 0 7 -4 4 -10z m-2018 -16 c-3 -3 -12
-4 -19 -1 -8 3 -5 6 6 6 11 1 17 -2 13 -5z m1980 0 c-3 -3 -12 -4 -19 -1 -8 3
-5 6 6 6 11 1 17 -2 13 -5z m-2080 -10 c-3 -3 -12 -4 -19 -1 -8 3 -5 6 6 6 11
1 17 -2 13 -5z m3926 -9 c-3 -9 -8 -14 -10 -11 -3 3 -2 9 2 15 9 16 15 13 8
-4z m-1912 -15 c-24 -11 -48 -20 -55 -20 -16 1 66 38 84 39 8 0 -5 -8 -29 -19z
m-1814 -16 c-3 -3 -12 -4 -19 -1 -8 3 -5 6 6 6 11 1 17 -2 13 -5z m40 -10 c-3
-3 -12 -4 -19 -1 -8 3 -5 6 6 6 11 1 17 -2 13 -5z m1700 0 c-3 -3 -12 -4 -19
-1 -8 3 -5 6 6 6 11 1 17 -2 13 -5z m-1632 -24 c25 -11 -1 -11 -35 0 -20 6
-21 8 -5 8 11 0 29 -3 40 -8z m1592 4 c-3 -3 -12 -4 -19 -1 -8 3 -5 6 6 6 11
1 17 -2 13 -5z m-1730 -10 c-3 -3 -12 -4 -19 -1 -8 3 -5 6 6 6 11 1 17 -2 13
-5z m1833 -4 c-34 -11 -60 -11 -35 0 11 5 29 8 40 8 16 0 15 -2 -5 -8z m-1793
-6 c-3 -3 -12 -4 -19 -1 -8 3 -5 6 6 6 11 1 17 -2 13 -5z m160 -10 c-3 -3 -12
-4 -19 -1 -8 3 -5 6 6 6 11 1 17 -2 13 -5z m1440 0 c-3 -3 -12 -4 -19 -1 -8 3
-5 6 6 6 11 1 17 -2 13 -5z m-1387 -14 c0 -5 -4 -10 -9 -10 -6 0 -13 5 -16 10
-3 6 1 10 9 10 9 0 16 -4 16 -10z m50 -13 c22 -4 21 -5 -4 -4 -17 1 -31 9 -33
17 -3 10 -2 11 4 4 4 -7 19 -14 33 -17z m1295 13 c-3 -5 -13 -10 -21 -10 -8 0
-14 5 -14 10 0 6 9 10 21 10 11 0 17 -4 14 -10z m145 0 c-8 -5 -26 -9 -40 -9
-23 1 -23 2 5 9 43 11 52 11 35 0z m-1623 -6 c-3 -3 -12 -4 -19 -1 -8 3 -5 6
6 6 11 1 17 -2 13 -5z m1426 -11 c-7 -2 -21 -2 -30 0 -10 3 -4 5 12 5 17 0 24
-2 18 -5z m-1380 -10 c-7 -2 -19 -2 -25 0 -7 3 -2 5 12 5 14 0 19 -2 13 -5z
m202 -3 c19 -8 19 -9 -2 -9 -12 -1 -25 4 -28 9 -7 12 2 12 30 0z m1115 0 c0
-5 -12 -10 -27 -9 l-28 1 25 8 c14 4 26 8 28 9 1 1 2 -3 2 -9z m162 -6 c-24
-8 -49 -13 -55 -11 -14 5 48 25 78 26 11 0 1 -7 -23 -15z m-1427 -4 c8 -13 -5
-13 -25 0 -13 8 -13 10 2 10 9 0 20 -4 23 -10z m208 -7 c-7 -2 -19 -2 -25 0
-7 3 -2 5 12 5 14 0 19 -2 13 -5z m994 1 c-3 -3 -12 -4 -19 -1 -8 3 -5 6 6 6
11 1 17 -2 13 -5z m147 -15 c-6 -11 -24 -2 -24 11 0 5 7 7 15 4 8 -4 12 -10 9
-15z m-1300 -4 c-4 -8 -8 -15 -10 -15 -2 0 -4 7 -4 15 0 8 4 15 10 15 5 0 7
-7 4 -15z m275 -1 c2 -2 -12 -4 -32 -4 -20 0 -37 4 -37 10 0 8 58 3 69 -6z
m826 6 c-3 -5 -25 -9 -48 -9 -40 1 -40 2 -12 9 44 11 67 11 60 0z m-1048 -6
c-3 -3 -12 -4 -19 -1 -8 3 -5 6 6 6 11 1 17 -2 13 -5z m1197 -4 c-6 -6 -34
-13 -62 -17 -29 -3 -52 -10 -52 -14 0 -5 -19 -9 -42 -8 -41 1 -40 1 22 15 36
9 76 19 90 24 37 12 56 12 44 0z m-876 -7 c-15 -2 -42 -2 -60 0 -18 2 -6 4 27
4 33 0 48 -2 33 -4z m605 0 c-18 -2 -48 -2 -65 0 -18 2 -4 4 32 4 36 0 50 -2
33 -4z m-850 -10 c-7 -2 -21 -2 -30 0 -10 3 -4 5 12 5 17 0 24 -2 18 -5z m77
-13 c21 -7 19 -8 -17 -9 -24 -1 -43 4 -43 9 0 12 24 12 60 0z m552 3 c-62 -2
-161 -2 -220 0 -59 1 -8 3 113 3 121 0 169 -2 107 -3z m-454 -20 c-10 -2 -28
-2 -40 0 -13 2 -5 4 17 4 22 1 32 -1 23 -4z m662 -3 c0 -5 -5 -10 -11 -10 -5
0 -7 5 -4 10 3 6 8 10 11 10 2 0 4 -4 4 -10z m68 3 c-10 -2 -28 -2 -40 0 -13
2 -5 4 17 4 22 1 32 -1 23 -4z m-570 -20 c-10 -2 -28 -2 -40 0 -13 2 -5 4 17
4 22 1 32 -1 23 -4z m242 -13 c-88 -6 -220 -1 -220 8 0 4 66 5 147 2 126 -3
137 -5 73 -10z m190 14 c-34 -7 -108 -8 -103 -1 2 4 30 6 61 6 31 -1 50 -3 42
-5z m2285 -34 c3 -5 1 -10 -4 -10 -6 0 -11 5 -11 10 0 6 2 10 4 10 3 0 8 -4
11 -10z m45 -39 c0 -5 -7 -12 -16 -15 -14 -5 -15 -4 -4 9 14 17 20 19 20 6z
m-770 -545 c0 -3 -4 -8 -10 -11 -5 -3 -10 -1 -10 4 0 6 5 11 10 11 6 0 10 -2
10 -4z m20 -56 c0 -5 -5 -10 -11 -10 -5 0 -7 5 -4 10 3 6 8 10 11 10 2 0 4 -4
4 -10z m-583 -226 c-3 -3 -12 -4 -19 -1 -8 3 -5 6 6 6 11 1 17 -2 13 -5z
m-2250 -80 c-3 -3 -12 -4 -19 -1 -8 3 -5 6 6 6 11 1 17 -2 13 -5z m236 -61
c-7 -2 -19 -2 -25 0 -7 3 -2 5 12 5 14 0 19 -2 13 -5z m1550 0 c-7 -2 -19 -2
-25 0 -7 3 -2 5 12 5 14 0 19 -2 13 -5z m-1726 -9 c-3 -3 -12 -4 -19 -1 -8 3
-5 6 6 6 11 1 17 -2 13 -5z m66 -21 c-7 -2 -19 -2 -25 0 -7 3 -2 5 12 5 14 0
19 -2 13 -5z m1770 0 c-7 -2 -19 -2 -25 0 -7 3 -2 5 12 5 14 0 19 -2 13 -5z
m-1310 -30 c-7 -2 -19 -2 -25 0 -7 3 -2 5 12 5 14 0 19 -2 13 -5z m850 0 c-7
-2 -19 -2 -25 0 -7 3 -2 5 12 5 14 0 19 -2 13 -5z m-665 -20 c-15 -2 -42 -2
-60 0 -18 2 -6 4 27 4 33 0 48 -2 33 -4z m520 0 c-15 -2 -42 -2 -60 0 -18 2
-6 4 27 4 33 0 48 -2 33 -4z m-875 -10 c-7 -2 -21 -2 -30 0 -10 3 -4 5 12 5
17 0 24 -2 18 -5z m1200 0 c-7 -2 -21 -2 -30 0 -10 3 -4 5 12 5 17 0 24 -2 18
-5z m-236 -29 c-3 -3 -12 -4 -19 -1 -8 3 -5 6 6 6 11 1 17 -2 13 -5z"/>
<path d="M11025 12295 c-19 -15 -18 -16 17 -13 20 2 35 1 32 -3 -6 -11 34 -21
48 -13 7 4 10 3 5 -1 -8 -10 152 -67 165 -59 4 3 8 2 8 -3 0 -15 59 -35 81
-28 13 4 19 3 16 -2 -9 -14 38 -37 54 -28 8 5 10 4 5 -3 -5 -8 0 -12 13 -12
10 0 21 -5 23 -12 3 -7 14 -9 34 -3 24 7 26 9 9 13 -11 2 -22 7 -25 11 -3 4
-32 18 -65 33 -45 19 -66 23 -85 17 -24 -9 -24 -8 -6 6 20 15 20 15 0 15 -11
0 -24 4 -29 8 -13 12 -137 52 -158 52 -9 0 -17 4 -17 9 0 5 -18 11 -39 15 -22
3 -45 8 -53 11 -7 3 -22 -2 -33 -10z"/>
<path d="M12210 11715 c7 -8 17 -15 22 -15 6 0 5 7 -2 15 -7 8 -17 15 -22 15
-6 0 -5 -7 2 -15z"/>
<path d="M12285 11660 c3 -5 8 -10 11 -10 2 0 4 5 4 10 0 6 -5 10 -11 10 -5 0
-7 -4 -4 -10z"/>
<path d="M12350 11576 c14 -13 31 -21 38 -18 7 2 22 -5 32 -16 12 -12 15 -22
8 -24 -7 -3 -4 -10 6 -21 14 -13 20 -14 30 -4 19 17 11 30 -34 58 -22 13 -40
27 -40 31 0 3 -9 4 -20 1 -11 -3 -20 0 -20 6 0 6 -6 11 -12 11 -7 0 -1 -11 12
-24z m110 -66 c0 -5 -5 -10 -11 -10 -5 0 -7 5 -4 10 3 6 8 10 11 10 2 0 4 -4
4 -10z"/>
<path d="M10050 11260 c0 -11 5 -20 10 -20 6 0 10 9 10 20 0 11 -4 20 -10 20
-5 0 -10 -9 -10 -20z"/>
<path d="M9477 11180 c3 -11 7 -20 9 -20 2 0 4 9 4 20 0 11 -4 20 -9 20 -5 0
-7 -9 -4 -20z"/>
<path d="M8862 10945 c1 -10 9 -20 16 -21 7 -1 8 0 2 3 -5 2 -8 9 -5 13 3 5 0
12 -6 15 -7 5 -10 1 -7 -10z"/>
<path d="M11275 10950 c-3 -5 -1 -10 4 -10 6 0 11 5 11 10 0 6 -2 10 -4 10 -3
0 -8 -4 -11 -10z"/>
<path d="M8370 10540 c0 -13 18 -22 24 -11 3 5 -1 11 -9 15 -8 3 -15 1 -15 -4z"/>
<path d="M11775 10540 c-3 -5 -2 -10 4 -10 5 0 13 5 16 10 3 6 2 10 -4 10 -5
0 -13 -4 -16 -10z"/>
<path d="M8083 10215 c-7 -8 -13 -20 -13 -27 0 -10 2 -10 9 1 5 7 13 11 19 7
6 -4 8 2 5 14 -3 11 -6 20 -7 20 0 -1 -7 -7 -13 -15z"/>
<path d="M8045 10150 c-3 -5 -1 -10 4 -10 6 0 11 5 11 10 0 6 -2 10 -4 10 -3
0 -8 -4 -11 -10z"/>
<path d="M8010 10088 c0 -9 5 -20 10 -23 13 -8 13 5 0 25 -8 13 -10 13 -10 -2z"/>
<path d="M10062 10073 c-1 -19 -7 -33 -14 -33 -7 0 -55 -5 -105 -10 -271 -29
-521 -153 -722 -360 -65 -66 -162 -201 -159 -218 3 -14 70 -56 223 -141 28
-15 89 -51 138 -79 215 -128 258 -152 262 -152 3 0 38 -20 78 -44 39 -24 95
-56 122 -71 100 -54 155 -90 159 -102 6 -15 -16 -7 -64 22 -20 13 -125 75
-235 140 -311 182 -420 246 -559 329 -72 42 -135 76 -142 76 -6 0 -14 -8 -17
-17 -3 -10 -24 -59 -46 -110 -60 -135 -104 -346 -100 -478 3 -117 45 -340 79
-420 50 -117 65 -145 76 -145 7 0 10 -8 7 -20 -3 -11 -1 -20 3 -20 5 0 20 -20
33 -45 13 -25 28 -45 32 -45 5 0 9 -5 9 -11 0 -39 288 -306 326 -303 8 1 14
-2 14 -7 0 -10 112 -73 170 -94 25 -9 54 -21 65 -26 11 -5 29 -11 40 -13 11
-3 47 -12 80 -20 32 -9 75 -16 95 -16 20 0 63 -5 95 -11 61 -11 189 -2 320 24
33 6 65 10 72 9 6 -1 14 2 18 8 3 5 15 10 26 10 10 0 19 4 19 8 0 4 21 14 48
22 42 12 119 47 132 60 9 9 44 30 68 40 12 5 35 21 50 35 15 14 30 25 35 25 4
0 46 37 93 83 82 78 157 167 185 218 19 37 35 49 47 37 6 -6 15 -9 21 -7 10 4
-880 528 -924 545 -19 8 -36 21 -81 62 -23 20 -24 22 -5 22 11 0 24 -6 28 -14
7 -11 207 -136 218 -136 2 0 56 -31 120 -70 64 -38 117 -70 119 -70 6 0 140
-82 146 -89 3 -3 39 -23 80 -45 41 -21 82 -45 91 -52 8 -8 19 -14 22 -14 4 0
26 -12 50 -27 107 -69 114 -69 149 5 39 84 68 164 68 190 0 12 5 22 12 22 6 0
9 3 6 6 -3 3 1 33 9 67 29 120 20 409 -18 532 -94 312 -255 538 -501 701 l-69
46 16 27 16 26 -20 -23 -21 -24 -63 30 c-35 17 -94 41 -130 54 -42 14 -67 28
-67 38 0 12 -2 12 -9 2 -6 -11 -23 -10 -92 3 -46 8 -114 18 -151 21 -66 5 -67
6 -71 37 l-4 32 -1 -32z m295 -195 c-3 -8 -6 -5 -6 6 -1 11 2 17 5 13 3 -3 4
-12 1 -19z m-480 -190 c-3 -8 -6 -5 -6 6 -1 11 2 17 5 13 3 -3 4 -12 1 -19z
m30 -120 c-3 -8 -6 -5 -6 6 -1 11 2 17 5 13 3 -3 4 -12 1 -19z m280 -320 c-3
-7 -5 -2 -5 12 0 14 2 19 5 13 2 -7 2 -19 0 -25z m-170 -100 c-3 -8 -6 -5 -6
6 -1 11 2 17 5 13 3 -3 4 -12 1 -19z m140 -10 c-3 -8 -6 -5 -6 6 -1 11 2 17 5
13 3 -3 4 -12 1 -19z m710 -64 c-3 -3 -12 -4 -19 -1 -8 3 -5 6 6 6 11 1 17 -2
13 -5z m-808 -41 c0 -25 -1 -26 -9 -8 -12 27 -12 35 0 35 6 0 10 -12 9 -27z
m-722 11 c-3 -3 -12 -4 -19 -1 -8 3 -5 6 6 6 11 1 17 -2 13 -5z m1420 0 c-3
-3 -12 -4 -19 -1 -8 3 -5 6 6 6 11 1 17 -2 13 -5z m-120 -30 c-3 -3 -12 -4
-19 -1 -8 3 -5 6 6 6 11 1 17 -2 13 -5z m-522 -64 c-4 -12 -9 -19 -12 -17 -3
3 -2 15 2 27 4 12 9 19 12 17 3 -3 2 -15 -2 -27z m-32 -51 c-4 -13 2 -18 24
-21 l28 -3 -35 -17 c-20 -10 -28 -18 -17 -18 29 0 19 -16 -13 -18 -16 -1 -30
2 -30 8 0 5 4 10 9 10 16 0 20 40 5 54 -20 20 -18 26 10 24 16 -2 22 -7 19
-19z m126 12 c9 -6 2 -10 -23 -13 -35 -4 -49 5 -23 15 19 8 31 8 46 -2z m-342
-7 c-3 -3 -12 -4 -19 -1 -8 3 -5 6 6 6 11 1 17 -2 13 -5z m113 -74 c0 -5 -17
-9 -37 -9 -38 1 -38 1 -8 9 43 11 45 11 45 0z m-117 -17 c-7 -2 -21 -2 -30 0
-10 3 -4 5 12 5 17 0 24 -2 18 -5z m370 0 c-7 -2 -19 -2 -25 0 -7 3 -2 5 12 5
14 0 19 -2 13 -5z m-99 -45 c4 -17 2 -28 -4 -28 -5 0 -10 9 -10 19 0 11 -3 28
-6 38 -5 12 -4 15 3 8 6 -5 13 -22 17 -37z m-74 -9 c0 -22 -4 -38 -8 -35 -8 5
-4 76 4 76 2 0 4 -18 4 -41z m337 5 c-3 -3 -12 -4 -19 -1 -8 3 -5 6 6 6 11 1
17 -2 13 -5z m-820 -30 c-3 -3 -12 -4 -19 -1 -8 3 -5 6 6 6 11 1 17 -2 13 -5z
m393 -34 c-12 -17 -24 -29 -27 -26 -6 5 40 65 46 60 2 -1 -7 -17 -19 -34z
m547 34 c-3 -3 -12 -4 -19 -1 -8 3 -5 6 6 6 11 1 17 -2 13 -5z m-500 -116 c-3
-8 -6 -5 -6 6 -1 11 2 17 5 13 3 -3 4 -12 1 -19z m140 0 c-3 -8 -6 -5 -6 6 -1
11 2 17 5 13 3 -3 4 -12 1 -19z m60 -230 c-3 -8 -6 -5 -6 6 -1 11 2 17 5 13 3
-3 4 -12 1 -19z m-310 -160 c-3 -8 -6 -5 -6 6 -1 11 2 17 5 13 3 -3 4 -12 1
-19z m390 -140 c-3 -8 -6 -5 -6 6 -1 11 2 17 5 13 3 -3 4 -12 1 -19z"/>
<path d="M9782 10040 c0 -14 2 -19 5 -12 2 6 2 18 0 25 -3 6 -5 1 -5 -13z"/>
<path d="M12140 10045 c-14 -16 -10 -18 14 -9 9 3 16 10 16 15 0 14 -16 11
-30 -6z"/>
<path d="M7947 9984 c-4 -10 -11 -29 -17 -42 -6 -15 -6 -21 0 -17 6 3 10 13
10 21 0 17 16 19 23 2 4 -9 5 -8 6 2 0 8 -4 24 -8 34 -8 20 -8 20 -14 0z"/>
<path d="M7906 9901 c-4 -7 -5 -15 -2 -18 9 -9 19 4 14 18 -4 11 -6 11 -12 0z"/>
<path d="M7883 9848 c-18 -24 -21 -43 -7 -56 11 -10 13 -7 8 18 -4 19 -2 30 5
30 6 0 11 -5 11 -12 0 -6 3 -9 6 -5 3 3 2 13 -3 22 -8 13 -11 14 -20 3z"/>
<path d="M7846 9765 c-4 -14 -2 -33 4 -43 8 -14 9 -12 6 11 -3 15 0 27 5 27 5
0 9 7 9 15 0 24 -17 17 -24 -10z"/>
<path d="M9205 9710 c10 -11 20 -18 23 -15 7 6 -18 35 -31 35 -5 0 -2 -9 8
-20z"/>
<path d="M7831 9715 c1 -19 18 -51 18 -35 0 8 -4 22 -9 30 -5 8 -9 11 -9 5z"/>
<path d="M10945 9709 c-11 -17 1 -21 15 -4 8 9 8 15 2 15 -6 0 -14 -5 -17 -11z"/>
<path d="M7803 9652 c-19 -44 -24 -87 -15 -112 9 -23 9 -22 16 12 4 20 4 48 0
62 -4 16 -2 26 4 26 6 0 13 -8 15 -17 3 -12 5 -10 6 7 1 41 -13 53 -26 22z"/>
<path d="M7764 9536 c-3 -7 -1 -29 4 -47 l10 -34 1 48 c1 47 -5 60 -15 33z"/>
<path d="M12370 9480 c0 -5 9 -10 21 -10 11 0 17 5 14 10 -3 6 -13 10 -21 10
-8 0 -14 -4 -14 -10z"/>
<path d="M11248 9183 c6 -2 18 -2 25 0 6 3 1 5 -13 5 -14 0 -19 -2 -12 -5z"/>
<path d="M8880 9160 c0 -5 10 -10 23 -10 18 0 19 2 7 10 -19 13 -30 13 -30 0z"/>
<path d="M12462 9135 c0 -16 2 -22 5 -12 2 9 2 23 0 30 -3 6 -5 -1 -5 -18z"/>
<path d="M8830 8820 c0 -5 9 -10 20 -10 11 0 20 5 20 10 0 6 -9 10 -20 10 -11
0 -20 -4 -20 -10z"/>
<path d="M11293 8823 c9 -2 23 -2 30 0 6 3 -1 5 -18 5 -16 0 -22 -2 -12 -5z"/>
<path d="M12452 8600 c0 -30 4 -68 8 -85 7 -29 8 -28 8 10 0 22 -3 60 -7 85
l-8 45 -1 -55z"/>
<path d="M11258 8533 c6 -2 18 -2 25 0 6 3 1 5 -13 5 -14 0 -19 -2 -12 -5z"/>
<path d="M12432 8475 c0 -22 3 -49 8 -60 7 -17 9 -15 8 10 0 17 -4 44 -8 60
-7 29 -8 28 -8 -10z"/>
<path d="M12411 8264 c0 -11 3 -14 6 -6 3 7 2 16 -1 19 -3 4 -6 -2 -5 -13z"/>
<path d="M9010 8240 c0 -5 5 -10 11 -10 5 0 7 5 4 10 -3 6 -8 10 -11 10 -2 0
-4 -4 -4 -10z"/>
<path d="M12401 8204 c0 -11 3 -14 6 -6 3 7 2 16 -1 19 -3 4 -6 -2 -5 -13z"/>
<path d="M12371 8190 c0 -14 4 -34 9 -45 8 -18 9 -18 9 5 0 14 -4 34 -9 45 -8
18 -9 18 -9 -5z"/>
<path d="M12350 8123 c0 -13 5 -23 10 -23 13 0 13 11 0 30 -8 12 -10 11 -10
-7z"/>
<path d="M10950 7992 c0 -5 7 -16 16 -23 14 -12 16 -11 13 5 -4 20 -29 35 -29
18z"/>
<path d="M12311 7995 c1 -19 18 -51 18 -35 0 8 -4 22 -9 30 -5 8 -9 11 -9 5z"/>
<path d="M9205 7960 c-17 -18 -17 -20 -1 -20 9 0 19 7 23 15 9 25 -2 27 -22 5z"/>
<path d="M12291 7955 c-1 -11 -8 -32 -15 -47 -8 -16 -11 -28 -6 -28 5 0 12 9
15 20 4 11 11 18 16 15 11 -7 11 13 -1 40 l-9 20 0 -20z"/>
<path d="M12232 7810 c-22 -42 -30 -67 -12 -40 9 13 11 13 21 0 8 -12 9 -7 5
18 -3 18 -1 32 4 32 6 0 10 -5 10 -12 0 -6 2 -9 5 -6 3 3 2 15 -3 27 -7 20 -9
19 -30 -19z"/>
<path d="M9425 7779 c-4 -11 -4 -23 -1 -26 3 -4 6 1 6 10 0 10 5 17 10 17 6 0
10 5 10 10 0 18 -19 10 -25 -11z"/>
<path d="M12215 7729 c-4 -6 -5 -12 -2 -15 2 -3 7 2 10 11 7 17 1 20 -8 4z"/>
<path d="M12170 7688 c0 -9 -6 -18 -12 -20 -8 -3 -4 -9 10 -17 22 -11 22 -11
16 16 -8 34 -14 42 -14 21z"/>
<path d="M12195 7690 c-3 -5 -1 -10 4 -10 6 0 11 5 11 10 0 6 -2 10 -4 10 -3
0 -8 -4 -11 -10z"/>
<path d="M9737 7643 c-4 -3 -7 -11 -7 -17 0 -6 5 -5 12 2 6 6 9 14 7 17 -3 3
-9 2 -12 -2z"/>
<path d="M10410 7629 c0 -5 5 -7 10 -4 6 3 10 8 10 11 0 2 -4 4 -10 4 -5 0
-10 -5 -10 -11z"/>
<path d="M10050 7603 c0 -5 5 -15 10 -23 8 -12 10 -11 10 8 0 12 -4 22 -10 22
-5 0 -10 -3 -10 -7z"/>
<path d="M12110 7571 c0 -3 4 -12 9 -19 6 -11 9 -9 13 5 3 12 0 20 -8 20 -8 0
-14 -3 -14 -6z"/>
<path d="M12062 7506 c-9 -19 -8 -25 4 -30 8 -3 14 -2 15 2 5 43 5 52 -1 52
-4 0 -12 -11 -18 -24z"/>
<path d="M11995 7412 c-50 -71 -49 -67 -26 -69 13 -1 28 11 43 35 12 20 26 39
30 40 4 2 8 8 8 13 0 6 -4 8 -9 5 -5 -4 -7 3 -4 14 8 30 2 25 -42 -38z m20
-11 c-3 -6 -11 -11 -17 -11 -6 0 -6 6 2 15 14 17 26 13 15 -4z"/>
<path d="M12055 7450 c3 -5 8 -10 11 -10 2 0 4 5 4 10 0 6 -5 10 -11 10 -5 0
-7 -4 -4 -10z"/>
</g>
</svg>
