<svg xmlns="http://www.w3.org/2000/svg" version="1.1" xmlns:xlink="http://www.w3.org/1999/xlink" xmlns:svgjs="http://svgjs.com/svgjs" width="1440" height="2560" preserveAspectRatio="none" viewBox="0 0 1440 2560"><g mask="url(&quot;#SvgjsMask1172&quot;)" fill="none"><rect width="1440" height="2560" x="0" y="0" fill="rgba(46, 3, 75, 1)"></rect><path d="M55.83 -57.24L120.78 -19.74L120.78 55.26L55.83 92.76L-9.12 55.26L-9.12 -19.74zM55.83 167.76L120.78 205.26L120.78 280.26L55.83 317.76L-9.12 280.26L-9.12 205.26zM120.78 505.26L185.74 542.76L185.74 617.76L120.78 655.26L55.83 617.76L55.83 542.76zM55.83 1067.76L120.78 1105.26L120.78 1180.26L55.83 1217.76L-9.12 1180.26L-9.12 1105.26zM120.78 1405.26L185.74 1442.76L185.74 1517.76L120.78 1555.26L55.83 1517.76L55.83 1442.76zM120.78 1855.26L185.74 1892.76L185.74 1967.76L120.78 2005.26L55.83 1967.76L55.83 1892.76zM55.83 1967.76L120.78 2005.26L120.78 2080.26L55.83 2117.76L-9.12 2080.26L-9.12 2005.26zM120.78 2080.26L185.74 2117.76L185.74 2192.76L120.78 2230.26L55.83 2192.76L55.83 2117.76zM55.83 2192.76L120.78 2230.26L120.78 2305.26L55.83 2342.76L-9.12 2305.26L-9.12 2230.26zM120.78 2530.26L185.74 2567.76L185.74 2642.76L120.78 2680.26L55.83 2642.76L55.83 2567.76zM185.74 -57.24L250.69 -19.74L250.69 55.26L185.74 92.76L120.78 55.26L120.78 -19.74zM250.69 55.26L315.64 92.76L315.64 167.76L250.69 205.26L185.74 167.76L185.74 92.76zM185.74 167.76L250.69 205.26L250.69 280.26L185.74 317.76L120.78 280.26L120.78 205.26zM185.74 842.76L250.69 880.26L250.69 955.26L185.74 992.76L120.78 955.26L120.78 880.26zM250.69 955.26L315.64 992.76L315.64 1067.76L250.69 1105.26L185.74 1067.76L185.74 992.76zM250.69 1180.26L315.64 1217.76L315.64 1292.76L250.69 1330.26L185.74 1292.76L185.74 1217.76zM185.74 1292.76L250.69 1330.26L250.69 1405.26L185.74 1442.76L120.78 1405.26L120.78 1330.26zM250.69 1405.26L315.64 1442.76L315.64 1517.76L250.69 1555.26L185.74 1517.76L185.74 1442.76zM185.74 1967.76L250.69 2005.26L250.69 2080.26L185.74 2117.76L120.78 2080.26L120.78 2005.26zM250.69 2080.26L315.64 2117.76L315.64 2192.76L250.69 2230.26L185.74 2192.76L185.74 2117.76zM250.69 2305.26L315.64 2342.76L315.64 2417.76L250.69 2455.26L185.74 2417.76L185.74 2342.76zM250.69 2530.26L315.64 2567.76L315.64 2642.76L250.69 2680.26L185.74 2642.76L185.74 2567.76zM315.64 -57.24L380.6 -19.74L380.6 55.26L315.64 92.76L250.69 55.26L250.69 -19.74zM380.6 730.26L445.55 767.76L445.55 842.76L380.6 880.26L315.64 842.76L315.64 767.76zM315.64 1292.76L380.6 1330.26L380.6 1405.26L315.64 1442.76L250.69 1405.26L250.69 1330.26zM380.6 1405.26L445.55 1442.76L445.55 1517.76L380.6 1555.26L315.64 1517.76L315.64 1442.76zM380.6 2305.26L445.55 2342.76L445.55 2417.76L380.6 2455.26L315.64 2417.76L315.64 2342.76zM445.55 -57.24L510.51 -19.74L510.51 55.26L445.55 92.76L380.6 55.26L380.6 -19.74zM445.55 167.76L510.51 205.26L510.51 280.26L445.55 317.76L380.6 280.26L380.6 205.26zM445.55 392.76L510.51 430.26L510.51 505.26L445.55 542.76L380.6 505.26L380.6 430.26zM510.51 730.26L575.46 767.76L575.46 842.76L510.51 880.26L445.55 842.76L445.55 767.76zM445.55 842.76L510.51 880.26L510.51 955.26L445.55 992.76L380.6 955.26L380.6 880.26zM445.55 1292.76L510.51 1330.26L510.51 1405.26L445.55 1442.76L380.6 1405.26L380.6 1330.26zM510.51 1405.26L575.46 1442.76L575.46 1517.76L510.51 1555.26L445.55 1517.76L445.55 1442.76zM445.55 1742.76L510.51 1780.26L510.51 1855.26L445.55 1892.76L380.6 1855.26L380.6 1780.26zM510.51 1855.26L575.46 1892.76L575.46 1967.76L510.51 2005.26L445.55 1967.76L445.55 1892.76zM445.55 1967.76L510.51 2005.26L510.51 2080.26L445.55 2117.76L380.6 2080.26L380.6 2005.26zM510.51 2080.26L575.46 2117.76L575.46 2192.76L510.51 2230.26L445.55 2192.76L445.55 2117.76zM510.51 2530.26L575.46 2567.76L575.46 2642.76L510.51 2680.26L445.55 2642.76L445.55 2567.76zM575.46 392.76L640.41 430.26L640.41 505.26L575.46 542.76L510.51 505.26L510.51 430.26zM575.46 617.76L640.41 655.26L640.41 730.26L575.46 767.76L510.51 730.26L510.51 655.26zM640.41 955.26L705.37 992.76L705.37 1067.76L640.41 1105.26L575.46 1067.76L575.46 992.76zM640.41 1180.26L705.37 1217.76L705.37 1292.76L640.41 1330.26L575.46 1292.76L575.46 1217.76zM640.41 1405.26L705.37 1442.76L705.37 1517.76L640.41 1555.26L575.46 1517.76L575.46 1442.76zM640.41 1630.26L705.37 1667.76L705.37 1742.76L640.41 1780.26L575.46 1742.76L575.46 1667.76zM640.41 2080.26L705.37 2117.76L705.37 2192.76L640.41 2230.26L575.46 2192.76L575.46 2117.76zM640.41 2305.26L705.37 2342.76L705.37 2417.76L640.41 2455.26L575.46 2417.76L575.46 2342.76zM770.32 55.26L835.28 92.76L835.28 167.76L770.32 205.26L705.37 167.76L705.37 92.76zM705.37 617.76L770.32 655.26L770.32 730.26L705.37 767.76L640.41 730.26L640.41 655.26zM705.37 842.76L770.32 880.26L770.32 955.26L705.37 992.76L640.41 955.26L640.41 880.26zM705.37 1067.76L770.32 1105.26L770.32 1180.26L705.37 1217.76L640.41 1180.26L640.41 1105.26zM770.32 1180.26L835.28 1217.76L835.28 1292.76L770.32 1330.26L705.37 1292.76L705.37 1217.76zM705.37 1292.76L770.32 1330.26L770.32 1405.26L705.37 1442.76L640.41 1405.26L640.41 1330.26zM770.32 1405.26L835.28 1442.76L835.28 1517.76L770.32 1555.26L705.37 1517.76L705.37 1442.76zM705.37 1517.76L770.32 1555.26L770.32 1630.26L705.37 1667.76L640.41 1630.26L640.41 1555.26zM770.32 1630.26L835.28 1667.76L835.28 1742.76L770.32 1780.26L705.37 1742.76L705.37 1667.76zM705.37 2192.76L770.32 2230.26L770.32 2305.26L705.37 2342.76L640.41 2305.26L640.41 2230.26zM770.32 2305.26L835.28 2342.76L835.28 2417.76L770.32 2455.26L705.37 2417.76L705.37 2342.76zM770.32 2530.26L835.28 2567.76L835.28 2642.76L770.32 2680.26L705.37 2642.76L705.37 2567.76zM835.27 -57.24L900.23 -19.74L900.23 55.26L835.27 92.76L770.32 55.26L770.32 -19.74zM900.23 1180.26L965.18 1217.76L965.18 1292.76L900.23 1330.26L835.27 1292.76L835.27 1217.76zM835.27 1517.76L900.23 1555.26L900.23 1630.26L835.27 1667.76L770.32 1630.26L770.32 1555.26zM900.23 1630.26L965.18 1667.76L965.18 1742.76L900.23 1780.26L835.27 1742.76L835.27 1667.76zM835.27 1742.76L900.23 1780.26L900.23 1855.26L835.27 1892.76L770.32 1855.26L770.32 1780.26zM900.23 1855.26L965.18 1892.76L965.18 1967.76L900.23 2005.26L835.27 1967.76L835.27 1892.76zM900.23 2080.26L965.18 2117.76L965.18 2192.76L900.23 2230.26L835.27 2192.76L835.27 2117.76zM835.27 2417.76L900.23 2455.26L900.23 2530.26L835.27 2567.76L770.32 2530.26L770.32 2455.26zM1030.14 55.26L1095.09 92.76L1095.09 167.76L1030.14 205.26L965.18 167.76L965.18 92.76zM1030.14 280.26L1095.09 317.76L1095.09 392.76L1030.14 430.26L965.18 392.76L965.18 317.76zM965.18 392.76L1030.14 430.26L1030.14 505.26L965.18 542.76L900.23 505.26L900.23 430.26zM1030.14 730.26L1095.09 767.76L1095.09 842.76L1030.14 880.26L965.18 842.76L965.18 767.76zM1030.14 955.26L1095.09 992.76L1095.09 1067.76L1030.14 1105.26L965.18 1067.76L965.18 992.76zM1030.14 1180.26L1095.09 1217.76L1095.09 1292.76L1030.14 1330.26L965.18 1292.76L965.18 1217.76zM965.18 1292.76L1030.14 1330.26L1030.14 1405.26L965.18 1442.76L900.23 1405.26L900.23 1330.26zM965.18 1517.76L1030.14 1555.26L1030.14 1630.26L965.18 1667.76L900.23 1630.26L900.23 1555.26zM1030.14 1630.26L1095.09 1667.76L1095.09 1742.76L1030.14 1780.26L965.18 1742.76L965.18 1667.76zM965.18 1742.76L1030.14 1780.26L1030.14 1855.26L965.18 1892.76L900.23 1855.26L900.23 1780.26zM1030.14 2080.26L1095.09 2117.76L1095.09 2192.76L1030.14 2230.26L965.18 2192.76L965.18 2117.76zM1160.04 55.26L1225 92.76L1225 167.76L1160.04 205.26L1095.09 167.76L1095.09 92.76zM1095.09 167.76L1160.04 205.26L1160.04 280.26L1095.09 317.76L1030.14 280.26L1030.14 205.26zM1160.04 280.26L1225 317.76L1225 392.76L1160.04 430.26L1095.09 392.76L1095.09 317.76zM1095.09 842.76L1160.04 880.26L1160.04 955.26L1095.09 992.76L1030.14 955.26L1030.14 880.26zM1160.04 1180.26L1225 1217.76L1225 1292.76L1160.04 1330.26L1095.09 1292.76L1095.09 1217.76zM1160.04 1405.26L1225 1442.76L1225 1517.76L1160.04 1555.26L1095.09 1517.76L1095.09 1442.76zM1160.04 1630.26L1225 1667.76L1225 1742.76L1160.04 1780.26L1095.09 1742.76L1095.09 1667.76zM1160.04 1855.26L1225 1892.76L1225 1967.76L1160.04 2005.26L1095.09 1967.76L1095.09 1892.76zM1095.09 1967.76L1160.04 2005.26L1160.04 2080.26L1095.09 2117.76L1030.14 2080.26L1030.14 2005.26zM1160.04 2080.26L1225 2117.76L1225 2192.76L1160.04 2230.26L1095.09 2192.76L1095.09 2117.76zM1095.09 2192.76L1160.04 2230.26L1160.04 2305.26L1095.09 2342.76L1030.14 2305.26L1030.14 2230.26zM1225 -57.24L1289.95 -19.74L1289.95 55.26L1225 92.76L1160.04 55.26L1160.04 -19.74zM1289.95 55.26L1354.9 92.76L1354.9 167.76L1289.95 205.26L1225 167.76L1225 92.76zM1225 167.76L1289.95 205.26L1289.95 280.26L1225 317.76L1160.04 280.26L1160.04 205.26zM1289.95 280.26L1354.9 317.76L1354.9 392.76L1289.95 430.26L1225 392.76L1225 317.76zM1225 392.76L1289.95 430.26L1289.95 505.26L1225 542.76L1160.04 505.26L1160.04 430.26zM1289.95 505.26L1354.9 542.76L1354.9 617.76L1289.95 655.26L1225 617.76L1225 542.76zM1289.95 730.26L1354.9 767.76L1354.9 842.76L1289.95 880.26L1225 842.76L1225 767.76zM1225 842.76L1289.95 880.26L1289.95 955.26L1225 992.76L1160.04 955.26L1160.04 880.26zM1289.95 1855.26L1354.9 1892.76L1354.9 1967.76L1289.95 2005.26L1225 1967.76L1225 1892.76zM1225 1967.76L1289.95 2005.26L1289.95 2080.26L1225 2117.76L1160.04 2080.26L1160.04 2005.26zM1289.95 2305.26L1354.9 2342.76L1354.9 2417.76L1289.95 2455.26L1225 2417.76L1225 2342.76zM1225 2417.76L1289.95 2455.26L1289.95 2530.26L1225 2567.76L1160.04 2530.26L1160.04 2455.26zM1289.95 2530.26L1354.9 2567.76L1354.9 2642.76L1289.95 2680.26L1225 2642.76L1225 2567.76zM1354.9 167.76L1419.86 205.26L1419.86 280.26L1354.9 317.76L1289.95 280.26L1289.95 205.26zM1419.86 505.26L1484.81 542.76L1484.81 617.76L1419.86 655.26L1354.9 617.76L1354.9 542.76zM1354.9 617.76L1419.86 655.26L1419.86 730.26L1354.9 767.76L1289.95 730.26L1289.95 655.26zM1354.9 1067.76L1419.86 1105.26L1419.86 1180.26L1354.9 1217.76L1289.95 1180.26L1289.95 1105.26zM1354.9 1292.76L1419.86 1330.26L1419.86 1405.26L1354.9 1442.76L1289.95 1405.26L1289.95 1330.26zM1354.9 1967.76L1419.86 2005.26L1419.86 2080.26L1354.9 2117.76L1289.95 2080.26L1289.95 2005.26zM1419.86 2080.26L1484.81 2117.76L1484.81 2192.76L1419.86 2230.26L1354.9 2192.76L1354.9 2117.76zM1419.86 2305.26L1484.81 2342.76L1484.81 2417.76L1419.86 2455.26L1354.9 2417.76L1354.9 2342.76zM1419.86 2530.26L1484.81 2567.76L1484.81 2642.76L1419.86 2680.26L1354.9 2642.76L1354.9 2567.76zM1484.81 -57.24L1549.77 -19.74L1549.77 55.26L1484.81 92.76L1419.86 55.26L1419.86 -19.74zM1549.77 55.26L1614.72 92.76L1614.72 167.76L1549.77 205.26L1484.81 167.76L1484.81 92.76zM1484.81 167.76L1549.77 205.26L1549.77 280.26L1484.81 317.76L1419.86 280.26L1419.86 205.26zM1484.81 392.76L1549.77 430.26L1549.77 505.26L1484.81 542.76L1419.86 505.26L1419.86 430.26zM1484.81 617.76L1549.77 655.26L1549.77 730.26L1484.81 767.76L1419.86 730.26L1419.86 655.26zM1549.77 955.26L1614.72 992.76L1614.72 1067.76L1549.77 1105.26L1484.81 1067.76L1484.81 992.76zM1484.81 1067.76L1549.77 1105.26L1549.77 1180.26L1484.81 1217.76L1419.86 1180.26L1419.86 1105.26zM1484.81 1292.76L1549.77 1330.26L1549.77 1405.26L1484.81 1442.76L1419.86 1405.26L1419.86 1330.26zM1484.81 1517.76L1549.77 1555.26L1549.77 1630.26L1484.81 1667.76L1419.86 1630.26L1419.86 1555.26zM1484.81 1967.76L1549.77 2005.26L1549.77 2080.26L1484.81 2117.76L1419.86 2080.26L1419.86 2005.26zM1484.81 2192.76L1549.77 2230.26L1549.77 2305.26L1484.81 2342.76L1419.86 2305.26L1419.86 2230.26zM1549.77 2305.26L1614.72 2342.76L1614.72 2417.76L1549.77 2455.26L1484.81 2417.76L1484.81 2342.76zM1484.81 2417.76L1549.77 2455.26L1549.77 2530.26L1484.81 2567.76L1419.86 2530.26L1419.86 2455.26z" stroke="rgba(19, 85, 164, 0.36)" stroke-width="2"></path><path d="M48.33 -57.24 a7.5 7.5 0 1 0 15 0 a7.5 7.5 0 1 0 -15 0zM113.28 -19.74 a7.5 7.5 0 1 0 15 0 a7.5 7.5 0 1 0 -15 0zM113.28 55.26 a7.5 7.5 0 1 0 15 0 a7.5 7.5 0 1 0 -15 0zM48.33 92.76 a7.5 7.5 0 1 0 15 0 a7.5 7.5 0 1 0 -15 0zM-16.62 55.26 a7.5 7.5 0 1 0 15 0 a7.5 7.5 0 1 0 -15 0zM-16.62 -19.74 a7.5 7.5 0 1 0 15 0 a7.5 7.5 0 1 0 -15 0zM48.33 167.76 a7.5 7.5 0 1 0 15 0 a7.5 7.5 0 1 0 -15 0zM113.28 205.26 a7.5 7.5 0 1 0 15 0 a7.5 7.5 0 1 0 -15 0zM113.28 280.26 a7.5 7.5 0 1 0 15 0 a7.5 7.5 0 1 0 -15 0zM48.33 317.76 a7.5 7.5 0 1 0 15 0 a7.5 7.5 0 1 0 -15 0zM-16.62 280.26 a7.5 7.5 0 1 0 15 0 a7.5 7.5 0 1 0 -15 0zM-16.62 205.26 a7.5 7.5 0 1 0 15 0 a7.5 7.5 0 1 0 -15 0zM113.28 505.26 a7.5 7.5 0 1 0 15 0 a7.5 7.5 0 1 0 -15 0zM178.24 542.76 a7.5 7.5 0 1 0 15 0 a7.5 7.5 0 1 0 -15 0zM178.24 617.76 a7.5 7.5 0 1 0 15 0 a7.5 7.5 0 1 0 -15 0zM113.28 655.26 a7.5 7.5 0 1 0 15 0 a7.5 7.5 0 1 0 -15 0zM48.33 617.76 a7.5 7.5 0 1 0 15 0 a7.5 7.5 0 1 0 -15 0zM48.33 542.76 a7.5 7.5 0 1 0 15 0 a7.5 7.5 0 1 0 -15 0zM48.33 1067.76 a7.5 7.5 0 1 0 15 0 a7.5 7.5 0 1 0 -15 0zM113.28 1105.26 a7.5 7.5 0 1 0 15 0 a7.5 7.5 0 1 0 -15 0zM113.28 1180.26 a7.5 7.5 0 1 0 15 0 a7.5 7.5 0 1 0 -15 0zM48.33 1217.76 a7.5 7.5 0 1 0 15 0 a7.5 7.5 0 1 0 -15 0zM-16.62 1180.26 a7.5 7.5 0 1 0 15 0 a7.5 7.5 0 1 0 -15 0zM-16.62 1105.26 a7.5 7.5 0 1 0 15 0 a7.5 7.5 0 1 0 -15 0zM113.28 1405.26 a7.5 7.5 0 1 0 15 0 a7.5 7.5 0 1 0 -15 0zM178.24 1442.76 a7.5 7.5 0 1 0 15 0 a7.5 7.5 0 1 0 -15 0zM178.24 1517.76 a7.5 7.5 0 1 0 15 0 a7.5 7.5 0 1 0 -15 0zM113.28 1555.26 a7.5 7.5 0 1 0 15 0 a7.5 7.5 0 1 0 -15 0zM48.33 1517.76 a7.5 7.5 0 1 0 15 0 a7.5 7.5 0 1 0 -15 0zM48.33 1442.76 a7.5 7.5 0 1 0 15 0 a7.5 7.5 0 1 0 -15 0zM113.28 1855.26 a7.5 7.5 0 1 0 15 0 a7.5 7.5 0 1 0 -15 0zM178.24 1892.76 a7.5 7.5 0 1 0 15 0 a7.5 7.5 0 1 0 -15 0zM178.24 1967.76 a7.5 7.5 0 1 0 15 0 a7.5 7.5 0 1 0 -15 0zM113.28 2005.26 a7.5 7.5 0 1 0 15 0 a7.5 7.5 0 1 0 -15 0zM48.33 1967.76 a7.5 7.5 0 1 0 15 0 a7.5 7.5 0 1 0 -15 0zM48.33 1892.76 a7.5 7.5 0 1 0 15 0 a7.5 7.5 0 1 0 -15 0zM113.28 2080.26 a7.5 7.5 0 1 0 15 0 a7.5 7.5 0 1 0 -15 0zM48.33 2117.76 a7.5 7.5 0 1 0 15 0 a7.5 7.5 0 1 0 -15 0zM-16.62 2080.26 a7.5 7.5 0 1 0 15 0 a7.5 7.5 0 1 0 -15 0zM-16.62 2005.26 a7.5 7.5 0 1 0 15 0 a7.5 7.5 0 1 0 -15 0zM178.24 2117.76 a7.5 7.5 0 1 0 15 0 a7.5 7.5 0 1 0 -15 0zM178.24 2192.76 a7.5 7.5 0 1 0 15 0 a7.5 7.5 0 1 0 -15 0zM113.28 2230.26 a7.5 7.5 0 1 0 15 0 a7.5 7.5 0 1 0 -15 0zM48.33 2192.76 a7.5 7.5 0 1 0 15 0 a7.5 7.5 0 1 0 -15 0zM113.28 2305.26 a7.5 7.5 0 1 0 15 0 a7.5 7.5 0 1 0 -15 0zM48.33 2342.76 a7.5 7.5 0 1 0 15 0 a7.5 7.5 0 1 0 -15 0zM-16.62 2305.26 a7.5 7.5 0 1 0 15 0 a7.5 7.5 0 1 0 -15 0zM-16.62 2230.26 a7.5 7.5 0 1 0 15 0 a7.5 7.5 0 1 0 -15 0zM113.28 2530.26 a7.5 7.5 0 1 0 15 0 a7.5 7.5 0 1 0 -15 0zM178.24 2567.76 a7.5 7.5 0 1 0 15 0 a7.5 7.5 0 1 0 -15 0zM178.24 2642.76 a7.5 7.5 0 1 0 15 0 a7.5 7.5 0 1 0 -15 0zM113.28 2680.26 a7.5 7.5 0 1 0 15 0 a7.5 7.5 0 1 0 -15 0zM48.33 2642.76 a7.5 7.5 0 1 0 15 0 a7.5 7.5 0 1 0 -15 0zM48.33 2567.76 a7.5 7.5 0 1 0 15 0 a7.5 7.5 0 1 0 -15 0zM178.24 -57.24 a7.5 7.5 0 1 0 15 0 a7.5 7.5 0 1 0 -15 0zM243.19 -19.74 a7.5 7.5 0 1 0 15 0 a7.5 7.5 0 1 0 -15 0zM243.19 55.26 a7.5 7.5 0 1 0 15 0 a7.5 7.5 0 1 0 -15 0zM178.24 92.76 a7.5 7.5 0 1 0 15 0 a7.5 7.5 0 1 0 -15 0zM308.14 92.76 a7.5 7.5 0 1 0 15 0 a7.5 7.5 0 1 0 -15 0zM308.14 167.76 a7.5 7.5 0 1 0 15 0 a7.5 7.5 0 1 0 -15 0zM243.19 205.26 a7.5 7.5 0 1 0 15 0 a7.5 7.5 0 1 0 -15 0zM178.24 167.76 a7.5 7.5 0 1 0 15 0 a7.5 7.5 0 1 0 -15 0zM243.19 280.26 a7.5 7.5 0 1 0 15 0 a7.5 7.5 0 1 0 -15 0zM178.24 317.76 a7.5 7.5 0 1 0 15 0 a7.5 7.5 0 1 0 -15 0zM178.24 842.76 a7.5 7.5 0 1 0 15 0 a7.5 7.5 0 1 0 -15 0zM243.19 880.26 a7.5 7.5 0 1 0 15 0 a7.5 7.5 0 1 0 -15 0zM243.19 955.26 a7.5 7.5 0 1 0 15 0 a7.5 7.5 0 1 0 -15 0zM178.24 992.76 a7.5 7.5 0 1 0 15 0 a7.5 7.5 0 1 0 -15 0zM113.28 955.26 a7.5 7.5 0 1 0 15 0 a7.5 7.5 0 1 0 -15 0zM113.28 880.26 a7.5 7.5 0 1 0 15 0 a7.5 7.5 0 1 0 -15 0zM308.14 992.76 a7.5 7.5 0 1 0 15 0 a7.5 7.5 0 1 0 -15 0zM308.14 1067.76 a7.5 7.5 0 1 0 15 0 a7.5 7.5 0 1 0 -15 0zM243.19 1105.26 a7.5 7.5 0 1 0 15 0 a7.5 7.5 0 1 0 -15 0zM178.24 1067.76 a7.5 7.5 0 1 0 15 0 a7.5 7.5 0 1 0 -15 0zM243.19 1180.26 a7.5 7.5 0 1 0 15 0 a7.5 7.5 0 1 0 -15 0zM308.14 1217.76 a7.5 7.5 0 1 0 15 0 a7.5 7.5 0 1 0 -15 0zM308.14 1292.76 a7.5 7.5 0 1 0 15 0 a7.5 7.5 0 1 0 -15 0zM243.19 1330.26 a7.5 7.5 0 1 0 15 0 a7.5 7.5 0 1 0 -15 0zM178.24 1292.76 a7.5 7.5 0 1 0 15 0 a7.5 7.5 0 1 0 -15 0zM178.24 1217.76 a7.5 7.5 0 1 0 15 0 a7.5 7.5 0 1 0 -15 0zM243.19 1405.26 a7.5 7.5 0 1 0 15 0 a7.5 7.5 0 1 0 -15 0zM113.28 1330.26 a7.5 7.5 0 1 0 15 0 a7.5 7.5 0 1 0 -15 0zM308.14 1442.76 a7.5 7.5 0 1 0 15 0 a7.5 7.5 0 1 0 -15 0zM308.14 1517.76 a7.5 7.5 0 1 0 15 0 a7.5 7.5 0 1 0 -15 0zM243.19 1555.26 a7.5 7.5 0 1 0 15 0 a7.5 7.5 0 1 0 -15 0zM243.19 2005.26 a7.5 7.5 0 1 0 15 0 a7.5 7.5 0 1 0 -15 0zM243.19 2080.26 a7.5 7.5 0 1 0 15 0 a7.5 7.5 0 1 0 -15 0zM308.14 2117.76 a7.5 7.5 0 1 0 15 0 a7.5 7.5 0 1 0 -15 0zM308.14 2192.76 a7.5 7.5 0 1 0 15 0 a7.5 7.5 0 1 0 -15 0zM243.19 2230.26 a7.5 7.5 0 1 0 15 0 a7.5 7.5 0 1 0 -15 0zM243.19 2305.26 a7.5 7.5 0 1 0 15 0 a7.5 7.5 0 1 0 -15 0zM308.14 2342.76 a7.5 7.5 0 1 0 15 0 a7.5 7.5 0 1 0 -15 0zM308.14 2417.76 a7.5 7.5 0 1 0 15 0 a7.5 7.5 0 1 0 -15 0zM243.19 2455.26 a7.5 7.5 0 1 0 15 0 a7.5 7.5 0 1 0 -15 0zM178.24 2417.76 a7.5 7.5 0 1 0 15 0 a7.5 7.5 0 1 0 -15 0zM178.24 2342.76 a7.5 7.5 0 1 0 15 0 a7.5 7.5 0 1 0 -15 0zM243.19 2530.26 a7.5 7.5 0 1 0 15 0 a7.5 7.5 0 1 0 -15 0zM308.14 2567.76 a7.5 7.5 0 1 0 15 0 a7.5 7.5 0 1 0 -15 0zM308.14 2642.76 a7.5 7.5 0 1 0 15 0 a7.5 7.5 0 1 0 -15 0zM243.19 2680.26 a7.5 7.5 0 1 0 15 0 a7.5 7.5 0 1 0 -15 0zM308.14 -57.24 a7.5 7.5 0 1 0 15 0 a7.5 7.5 0 1 0 -15 0zM373.1 -19.74 a7.5 7.5 0 1 0 15 0 a7.5 7.5 0 1 0 -15 0zM373.1 55.26 a7.5 7.5 0 1 0 15 0 a7.5 7.5 0 1 0 -15 0zM373.1 730.26 a7.5 7.5 0 1 0 15 0 a7.5 7.5 0 1 0 -15 0zM438.05 767.76 a7.5 7.5 0 1 0 15 0 a7.5 7.5 0 1 0 -15 0zM438.05 842.76 a7.5 7.5 0 1 0 15 0 a7.5 7.5 0 1 0 -15 0zM373.1 880.26 a7.5 7.5 0 1 0 15 0 a7.5 7.5 0 1 0 -15 0zM308.14 842.76 a7.5 7.5 0 1 0 15 0 a7.5 7.5 0 1 0 -15 0zM308.14 767.76 a7.5 7.5 0 1 0 15 0 a7.5 7.5 0 1 0 -15 0zM373.1 1330.26 a7.5 7.5 0 1 0 15 0 a7.5 7.5 0 1 0 -15 0zM373.1 1405.26 a7.5 7.5 0 1 0 15 0 a7.5 7.5 0 1 0 -15 0zM438.05 1442.76 a7.5 7.5 0 1 0 15 0 a7.5 7.5 0 1 0 -15 0zM438.05 1517.76 a7.5 7.5 0 1 0 15 0 a7.5 7.5 0 1 0 -15 0zM373.1 1555.26 a7.5 7.5 0 1 0 15 0 a7.5 7.5 0 1 0 -15 0zM373.1 2305.26 a7.5 7.5 0 1 0 15 0 a7.5 7.5 0 1 0 -15 0zM438.05 2342.76 a7.5 7.5 0 1 0 15 0 a7.5 7.5 0 1 0 -15 0zM438.05 2417.76 a7.5 7.5 0 1 0 15 0 a7.5 7.5 0 1 0 -15 0zM373.1 2455.26 a7.5 7.5 0 1 0 15 0 a7.5 7.5 0 1 0 -15 0zM438.05 -57.24 a7.5 7.5 0 1 0 15 0 a7.5 7.5 0 1 0 -15 0zM503.01 -19.74 a7.5 7.5 0 1 0 15 0 a7.5 7.5 0 1 0 -15 0zM503.01 55.26 a7.5 7.5 0 1 0 15 0 a7.5 7.5 0 1 0 -15 0zM438.05 92.76 a7.5 7.5 0 1 0 15 0 a7.5 7.5 0 1 0 -15 0zM438.05 167.76 a7.5 7.5 0 1 0 15 0 a7.5 7.5 0 1 0 -15 0zM503.01 205.26 a7.5 7.5 0 1 0 15 0 a7.5 7.5 0 1 0 -15 0zM503.01 280.26 a7.5 7.5 0 1 0 15 0 a7.5 7.5 0 1 0 -15 0zM438.05 317.76 a7.5 7.5 0 1 0 15 0 a7.5 7.5 0 1 0 -15 0zM373.1 280.26 a7.5 7.5 0 1 0 15 0 a7.5 7.5 0 1 0 -15 0zM373.1 205.26 a7.5 7.5 0 1 0 15 0 a7.5 7.5 0 1 0 -15 0zM438.05 392.76 a7.5 7.5 0 1 0 15 0 a7.5 7.5 0 1 0 -15 0zM503.01 430.26 a7.5 7.5 0 1 0 15 0 a7.5 7.5 0 1 0 -15 0zM503.01 505.26 a7.5 7.5 0 1 0 15 0 a7.5 7.5 0 1 0 -15 0zM438.05 542.76 a7.5 7.5 0 1 0 15 0 a7.5 7.5 0 1 0 -15 0zM373.1 505.26 a7.5 7.5 0 1 0 15 0 a7.5 7.5 0 1 0 -15 0zM373.1 430.26 a7.5 7.5 0 1 0 15 0 a7.5 7.5 0 1 0 -15 0zM503.01 730.26 a7.5 7.5 0 1 0 15 0 a7.5 7.5 0 1 0 -15 0zM567.96 767.76 a7.5 7.5 0 1 0 15 0 a7.5 7.5 0 1 0 -15 0zM567.96 842.76 a7.5 7.5 0 1 0 15 0 a7.5 7.5 0 1 0 -15 0zM503.01 880.26 a7.5 7.5 0 1 0 15 0 a7.5 7.5 0 1 0 -15 0zM503.01 955.26 a7.5 7.5 0 1 0 15 0 a7.5 7.5 0 1 0 -15 0zM438.05 992.76 a7.5 7.5 0 1 0 15 0 a7.5 7.5 0 1 0 -15 0zM373.1 955.26 a7.5 7.5 0 1 0 15 0 a7.5 7.5 0 1 0 -15 0zM438.05 1292.76 a7.5 7.5 0 1 0 15 0 a7.5 7.5 0 1 0 -15 0zM503.01 1330.26 a7.5 7.5 0 1 0 15 0 a7.5 7.5 0 1 0 -15 0zM503.01 1405.26 a7.5 7.5 0 1 0 15 0 a7.5 7.5 0 1 0 -15 0zM567.96 1442.76 a7.5 7.5 0 1 0 15 0 a7.5 7.5 0 1 0 -15 0zM567.96 1517.76 a7.5 7.5 0 1 0 15 0 a7.5 7.5 0 1 0 -15 0zM503.01 1555.26 a7.5 7.5 0 1 0 15 0 a7.5 7.5 0 1 0 -15 0zM438.05 1742.76 a7.5 7.5 0 1 0 15 0 a7.5 7.5 0 1 0 -15 0zM503.01 1780.26 a7.5 7.5 0 1 0 15 0 a7.5 7.5 0 1 0 -15 0zM503.01 1855.26 a7.5 7.5 0 1 0 15 0 a7.5 7.5 0 1 0 -15 0zM438.05 1892.76 a7.5 7.5 0 1 0 15 0 a7.5 7.5 0 1 0 -15 0zM373.1 1855.26 a7.5 7.5 0 1 0 15 0 a7.5 7.5 0 1 0 -15 0zM373.1 1780.26 a7.5 7.5 0 1 0 15 0 a7.5 7.5 0 1 0 -15 0zM567.96 1892.76 a7.5 7.5 0 1 0 15 0 a7.5 7.5 0 1 0 -15 0zM567.96 1967.76 a7.5 7.5 0 1 0 15 0 a7.5 7.5 0 1 0 -15 0zM503.01 2005.26 a7.5 7.5 0 1 0 15 0 a7.5 7.5 0 1 0 -15 0zM438.05 1967.76 a7.5 7.5 0 1 0 15 0 a7.5 7.5 0 1 0 -15 0zM503.01 2080.26 a7.5 7.5 0 1 0 15 0 a7.5 7.5 0 1 0 -15 0zM438.05 2117.76 a7.5 7.5 0 1 0 15 0 a7.5 7.5 0 1 0 -15 0zM373.1 2080.26 a7.5 7.5 0 1 0 15 0 a7.5 7.5 0 1 0 -15 0zM373.1 2005.26 a7.5 7.5 0 1 0 15 0 a7.5 7.5 0 1 0 -15 0zM567.96 2117.76 a7.5 7.5 0 1 0 15 0 a7.5 7.5 0 1 0 -15 0zM567.96 2192.76 a7.5 7.5 0 1 0 15 0 a7.5 7.5 0 1 0 -15 0zM503.01 2230.26 a7.5 7.5 0 1 0 15 0 a7.5 7.5 0 1 0 -15 0zM438.05 2192.76 a7.5 7.5 0 1 0 15 0 a7.5 7.5 0 1 0 -15 0zM503.01 2530.26 a7.5 7.5 0 1 0 15 0 a7.5 7.5 0 1 0 -15 0zM567.96 2567.76 a7.5 7.5 0 1 0 15 0 a7.5 7.5 0 1 0 -15 0zM567.96 2642.76 a7.5 7.5 0 1 0 15 0 a7.5 7.5 0 1 0 -15 0zM503.01 2680.26 a7.5 7.5 0 1 0 15 0 a7.5 7.5 0 1 0 -15 0zM438.05 2642.76 a7.5 7.5 0 1 0 15 0 a7.5 7.5 0 1 0 -15 0zM438.05 2567.76 a7.5 7.5 0 1 0 15 0 a7.5 7.5 0 1 0 -15 0zM567.96 392.76 a7.5 7.5 0 1 0 15 0 a7.5 7.5 0 1 0 -15 0zM632.91 430.26 a7.5 7.5 0 1 0 15 0 a7.5 7.5 0 1 0 -15 0zM632.91 505.26 a7.5 7.5 0 1 0 15 0 a7.5 7.5 0 1 0 -15 0zM567.96 542.76 a7.5 7.5 0 1 0 15 0 a7.5 7.5 0 1 0 -15 0zM567.96 617.76 a7.5 7.5 0 1 0 15 0 a7.5 7.5 0 1 0 -15 0zM632.91 655.26 a7.5 7.5 0 1 0 15 0 a7.5 7.5 0 1 0 -15 0zM632.91 730.26 a7.5 7.5 0 1 0 15 0 a7.5 7.5 0 1 0 -15 0zM503.01 655.26 a7.5 7.5 0 1 0 15 0 a7.5 7.5 0 1 0 -15 0zM632.91 955.26 a7.5 7.5 0 1 0 15 0 a7.5 7.5 0 1 0 -15 0zM697.87 992.76 a7.5 7.5 0 1 0 15 0 a7.5 7.5 0 1 0 -15 0zM697.87 1067.76 a7.5 7.5 0 1 0 15 0 a7.5 7.5 0 1 0 -15 0zM632.91 1105.26 a7.5 7.5 0 1 0 15 0 a7.5 7.5 0 1 0 -15 0zM567.96 1067.76 a7.5 7.5 0 1 0 15 0 a7.5 7.5 0 1 0 -15 0zM567.96 992.76 a7.5 7.5 0 1 0 15 0 a7.5 7.5 0 1 0 -15 0zM632.91 1180.26 a7.5 7.5 0 1 0 15 0 a7.5 7.5 0 1 0 -15 0zM697.87 1217.76 a7.5 7.5 0 1 0 15 0 a7.5 7.5 0 1 0 -15 0zM697.87 1292.76 a7.5 7.5 0 1 0 15 0 a7.5 7.5 0 1 0 -15 0zM632.91 1330.26 a7.5 7.5 0 1 0 15 0 a7.5 7.5 0 1 0 -15 0zM567.96 1292.76 a7.5 7.5 0 1 0 15 0 a7.5 7.5 0 1 0 -15 0zM567.96 1217.76 a7.5 7.5 0 1 0 15 0 a7.5 7.5 0 1 0 -15 0zM632.91 1405.26 a7.5 7.5 0 1 0 15 0 a7.5 7.5 0 1 0 -15 0zM697.87 1442.76 a7.5 7.5 0 1 0 15 0 a7.5 7.5 0 1 0 -15 0zM697.87 1517.76 a7.5 7.5 0 1 0 15 0 a7.5 7.5 0 1 0 -15 0zM632.91 1555.26 a7.5 7.5 0 1 0 15 0 a7.5 7.5 0 1 0 -15 0zM632.91 1630.26 a7.5 7.5 0 1 0 15 0 a7.5 7.5 0 1 0 -15 0zM697.87 1667.76 a7.5 7.5 0 1 0 15 0 a7.5 7.5 0 1 0 -15 0zM697.87 1742.76 a7.5 7.5 0 1 0 15 0 a7.5 7.5 0 1 0 -15 0zM632.91 1780.26 a7.5 7.5 0 1 0 15 0 a7.5 7.5 0 1 0 -15 0zM567.96 1742.76 a7.5 7.5 0 1 0 15 0 a7.5 7.5 0 1 0 -15 0zM567.96 1667.76 a7.5 7.5 0 1 0 15 0 a7.5 7.5 0 1 0 -15 0zM632.91 2080.26 a7.5 7.5 0 1 0 15 0 a7.5 7.5 0 1 0 -15 0zM697.87 2117.76 a7.5 7.5 0 1 0 15 0 a7.5 7.5 0 1 0 -15 0zM697.87 2192.76 a7.5 7.5 0 1 0 15 0 a7.5 7.5 0 1 0 -15 0zM632.91 2230.26 a7.5 7.5 0 1 0 15 0 a7.5 7.5 0 1 0 -15 0zM632.91 2305.26 a7.5 7.5 0 1 0 15 0 a7.5 7.5 0 1 0 -15 0zM697.87 2342.76 a7.5 7.5 0 1 0 15 0 a7.5 7.5 0 1 0 -15 0zM697.87 2417.76 a7.5 7.5 0 1 0 15 0 a7.5 7.5 0 1 0 -15 0zM632.91 2455.26 a7.5 7.5 0 1 0 15 0 a7.5 7.5 0 1 0 -15 0zM567.96 2417.76 a7.5 7.5 0 1 0 15 0 a7.5 7.5 0 1 0 -15 0zM567.96 2342.76 a7.5 7.5 0 1 0 15 0 a7.5 7.5 0 1 0 -15 0zM762.82 55.26 a7.5 7.5 0 1 0 15 0 a7.5 7.5 0 1 0 -15 0zM827.78 92.76 a7.5 7.5 0 1 0 15 0 a7.5 7.5 0 1 0 -15 0zM827.78 167.76 a7.5 7.5 0 1 0 15 0 a7.5 7.5 0 1 0 -15 0zM762.82 205.26 a7.5 7.5 0 1 0 15 0 a7.5 7.5 0 1 0 -15 0zM697.87 167.76 a7.5 7.5 0 1 0 15 0 a7.5 7.5 0 1 0 -15 0zM697.87 92.76 a7.5 7.5 0 1 0 15 0 a7.5 7.5 0 1 0 -15 0zM697.87 617.76 a7.5 7.5 0 1 0 15 0 a7.5 7.5 0 1 0 -15 0zM762.82 655.26 a7.5 7.5 0 1 0 15 0 a7.5 7.5 0 1 0 -15 0zM762.82 730.26 a7.5 7.5 0 1 0 15 0 a7.5 7.5 0 1 0 -15 0zM697.87 767.76 a7.5 7.5 0 1 0 15 0 a7.5 7.5 0 1 0 -15 0zM697.87 842.76 a7.5 7.5 0 1 0 15 0 a7.5 7.5 0 1 0 -15 0zM762.82 880.26 a7.5 7.5 0 1 0 15 0 a7.5 7.5 0 1 0 -15 0zM762.82 955.26 a7.5 7.5 0 1 0 15 0 a7.5 7.5 0 1 0 -15 0zM632.91 880.26 a7.5 7.5 0 1 0 15 0 a7.5 7.5 0 1 0 -15 0zM762.82 1105.26 a7.5 7.5 0 1 0 15 0 a7.5 7.5 0 1 0 -15 0zM762.82 1180.26 a7.5 7.5 0 1 0 15 0 a7.5 7.5 0 1 0 -15 0zM827.78 1217.76 a7.5 7.5 0 1 0 15 0 a7.5 7.5 0 1 0 -15 0zM827.78 1292.76 a7.5 7.5 0 1 0 15 0 a7.5 7.5 0 1 0 -15 0zM762.82 1330.26 a7.5 7.5 0 1 0 15 0 a7.5 7.5 0 1 0 -15 0zM762.82 1405.26 a7.5 7.5 0 1 0 15 0 a7.5 7.5 0 1 0 -15 0zM827.78 1442.76 a7.5 7.5 0 1 0 15 0 a7.5 7.5 0 1 0 -15 0zM827.78 1517.76 a7.5 7.5 0 1 0 15 0 a7.5 7.5 0 1 0 -15 0zM762.82 1555.26 a7.5 7.5 0 1 0 15 0 a7.5 7.5 0 1 0 -15 0zM762.82 1630.26 a7.5 7.5 0 1 0 15 0 a7.5 7.5 0 1 0 -15 0zM827.78 1667.76 a7.5 7.5 0 1 0 15 0 a7.5 7.5 0 1 0 -15 0zM827.78 1742.76 a7.5 7.5 0 1 0 15 0 a7.5 7.5 0 1 0 -15 0zM762.82 1780.26 a7.5 7.5 0 1 0 15 0 a7.5 7.5 0 1 0 -15 0zM762.82 2230.26 a7.5 7.5 0 1 0 15 0 a7.5 7.5 0 1 0 -15 0zM762.82 2305.26 a7.5 7.5 0 1 0 15 0 a7.5 7.5 0 1 0 -15 0zM827.78 2342.76 a7.5 7.5 0 1 0 15 0 a7.5 7.5 0 1 0 -15 0zM827.78 2417.76 a7.5 7.5 0 1 0 15 0 a7.5 7.5 0 1 0 -15 0zM762.82 2455.26 a7.5 7.5 0 1 0 15 0 a7.5 7.5 0 1 0 -15 0zM762.82 2530.26 a7.5 7.5 0 1 0 15 0 a7.5 7.5 0 1 0 -15 0zM827.78 2567.76 a7.5 7.5 0 1 0 15 0 a7.5 7.5 0 1 0 -15 0zM827.78 2642.76 a7.5 7.5 0 1 0 15 0 a7.5 7.5 0 1 0 -15 0zM762.82 2680.26 a7.5 7.5 0 1 0 15 0 a7.5 7.5 0 1 0 -15 0zM697.87 2642.76 a7.5 7.5 0 1 0 15 0 a7.5 7.5 0 1 0 -15 0zM697.87 2567.76 a7.5 7.5 0 1 0 15 0 a7.5 7.5 0 1 0 -15 0zM827.77 -57.24 a7.5 7.5 0 1 0 15 0 a7.5 7.5 0 1 0 -15 0zM892.73 -19.74 a7.5 7.5 0 1 0 15 0 a7.5 7.5 0 1 0 -15 0zM892.73 55.26 a7.5 7.5 0 1 0 15 0 a7.5 7.5 0 1 0 -15 0zM827.77 92.76 a7.5 7.5 0 1 0 15 0 a7.5 7.5 0 1 0 -15 0zM762.82 -19.74 a7.5 7.5 0 1 0 15 0 a7.5 7.5 0 1 0 -15 0zM892.73 1180.26 a7.5 7.5 0 1 0 15 0 a7.5 7.5 0 1 0 -15 0zM957.68 1217.76 a7.5 7.5 0 1 0 15 0 a7.5 7.5 0 1 0 -15 0zM957.68 1292.76 a7.5 7.5 0 1 0 15 0 a7.5 7.5 0 1 0 -15 0zM892.73 1330.26 a7.5 7.5 0 1 0 15 0 a7.5 7.5 0 1 0 -15 0zM827.77 1292.76 a7.5 7.5 0 1 0 15 0 a7.5 7.5 0 1 0 -15 0zM827.77 1217.76 a7.5 7.5 0 1 0 15 0 a7.5 7.5 0 1 0 -15 0zM827.77 1517.76 a7.5 7.5 0 1 0 15 0 a7.5 7.5 0 1 0 -15 0zM892.73 1555.26 a7.5 7.5 0 1 0 15 0 a7.5 7.5 0 1 0 -15 0zM892.73 1630.26 a7.5 7.5 0 1 0 15 0 a7.5 7.5 0 1 0 -15 0zM827.77 1667.76 a7.5 7.5 0 1 0 15 0 a7.5 7.5 0 1 0 -15 0zM957.68 1667.76 a7.5 7.5 0 1 0 15 0 a7.5 7.5 0 1 0 -15 0zM957.68 1742.76 a7.5 7.5 0 1 0 15 0 a7.5 7.5 0 1 0 -15 0zM892.73 1780.26 a7.5 7.5 0 1 0 15 0 a7.5 7.5 0 1 0 -15 0zM827.77 1742.76 a7.5 7.5 0 1 0 15 0 a7.5 7.5 0 1 0 -15 0zM892.73 1855.26 a7.5 7.5 0 1 0 15 0 a7.5 7.5 0 1 0 -15 0zM827.77 1892.76 a7.5 7.5 0 1 0 15 0 a7.5 7.5 0 1 0 -15 0zM762.82 1855.26 a7.5 7.5 0 1 0 15 0 a7.5 7.5 0 1 0 -15 0zM957.68 1892.76 a7.5 7.5 0 1 0 15 0 a7.5 7.5 0 1 0 -15 0zM957.68 1967.76 a7.5 7.5 0 1 0 15 0 a7.5 7.5 0 1 0 -15 0zM892.73 2005.26 a7.5 7.5 0 1 0 15 0 a7.5 7.5 0 1 0 -15 0zM827.77 1967.76 a7.5 7.5 0 1 0 15 0 a7.5 7.5 0 1 0 -15 0zM892.73 2080.26 a7.5 7.5 0 1 0 15 0 a7.5 7.5 0 1 0 -15 0zM957.68 2117.76 a7.5 7.5 0 1 0 15 0 a7.5 7.5 0 1 0 -15 0zM957.68 2192.76 a7.5 7.5 0 1 0 15 0 a7.5 7.5 0 1 0 -15 0zM892.73 2230.26 a7.5 7.5 0 1 0 15 0 a7.5 7.5 0 1 0 -15 0zM827.77 2192.76 a7.5 7.5 0 1 0 15 0 a7.5 7.5 0 1 0 -15 0zM827.77 2117.76 a7.5 7.5 0 1 0 15 0 a7.5 7.5 0 1 0 -15 0zM827.77 2417.76 a7.5 7.5 0 1 0 15 0 a7.5 7.5 0 1 0 -15 0zM892.73 2455.26 a7.5 7.5 0 1 0 15 0 a7.5 7.5 0 1 0 -15 0zM892.73 2530.26 a7.5 7.5 0 1 0 15 0 a7.5 7.5 0 1 0 -15 0zM827.77 2567.76 a7.5 7.5 0 1 0 15 0 a7.5 7.5 0 1 0 -15 0zM1022.64 55.26 a7.5 7.5 0 1 0 15 0 a7.5 7.5 0 1 0 -15 0zM1087.59 92.76 a7.5 7.5 0 1 0 15 0 a7.5 7.5 0 1 0 -15 0zM1087.59 167.76 a7.5 7.5 0 1 0 15 0 a7.5 7.5 0 1 0 -15 0zM1022.64 205.26 a7.5 7.5 0 1 0 15 0 a7.5 7.5 0 1 0 -15 0zM957.68 167.76 a7.5 7.5 0 1 0 15 0 a7.5 7.5 0 1 0 -15 0zM957.68 92.76 a7.5 7.5 0 1 0 15 0 a7.5 7.5 0 1 0 -15 0zM1022.64 280.26 a7.5 7.5 0 1 0 15 0 a7.5 7.5 0 1 0 -15 0zM1087.59 317.76 a7.5 7.5 0 1 0 15 0 a7.5 7.5 0 1 0 -15 0zM1087.59 392.76 a7.5 7.5 0 1 0 15 0 a7.5 7.5 0 1 0 -15 0zM1022.64 430.26 a7.5 7.5 0 1 0 15 0 a7.5 7.5 0 1 0 -15 0zM957.68 392.76 a7.5 7.5 0 1 0 15 0 a7.5 7.5 0 1 0 -15 0zM957.68 317.76 a7.5 7.5 0 1 0 15 0 a7.5 7.5 0 1 0 -15 0zM1022.64 505.26 a7.5 7.5 0 1 0 15 0 a7.5 7.5 0 1 0 -15 0zM957.68 542.76 a7.5 7.5 0 1 0 15 0 a7.5 7.5 0 1 0 -15 0zM892.73 505.26 a7.5 7.5 0 1 0 15 0 a7.5 7.5 0 1 0 -15 0zM892.73 430.26 a7.5 7.5 0 1 0 15 0 a7.5 7.5 0 1 0 -15 0zM1022.64 730.26 a7.5 7.5 0 1 0 15 0 a7.5 7.5 0 1 0 -15 0zM1087.59 767.76 a7.5 7.5 0 1 0 15 0 a7.5 7.5 0 1 0 -15 0zM1087.59 842.76 a7.5 7.5 0 1 0 15 0 a7.5 7.5 0 1 0 -15 0zM1022.64 880.26 a7.5 7.5 0 1 0 15 0 a7.5 7.5 0 1 0 -15 0zM957.68 842.76 a7.5 7.5 0 1 0 15 0 a7.5 7.5 0 1 0 -15 0zM957.68 767.76 a7.5 7.5 0 1 0 15 0 a7.5 7.5 0 1 0 -15 0zM1022.64 955.26 a7.5 7.5 0 1 0 15 0 a7.5 7.5 0 1 0 -15 0zM1087.59 992.76 a7.5 7.5 0 1 0 15 0 a7.5 7.5 0 1 0 -15 0zM1087.59 1067.76 a7.5 7.5 0 1 0 15 0 a7.5 7.5 0 1 0 -15 0zM1022.64 1105.26 a7.5 7.5 0 1 0 15 0 a7.5 7.5 0 1 0 -15 0zM957.68 1067.76 a7.5 7.5 0 1 0 15 0 a7.5 7.5 0 1 0 -15 0zM957.68 992.76 a7.5 7.5 0 1 0 15 0 a7.5 7.5 0 1 0 -15 0zM1022.64 1180.26 a7.5 7.5 0 1 0 15 0 a7.5 7.5 0 1 0 -15 0zM1087.59 1217.76 a7.5 7.5 0 1 0 15 0 a7.5 7.5 0 1 0 -15 0zM1087.59 1292.76 a7.5 7.5 0 1 0 15 0 a7.5 7.5 0 1 0 -15 0zM1022.64 1330.26 a7.5 7.5 0 1 0 15 0 a7.5 7.5 0 1 0 -15 0zM1022.64 1405.26 a7.5 7.5 0 1 0 15 0 a7.5 7.5 0 1 0 -15 0zM957.68 1442.76 a7.5 7.5 0 1 0 15 0 a7.5 7.5 0 1 0 -15 0zM892.73 1405.26 a7.5 7.5 0 1 0 15 0 a7.5 7.5 0 1 0 -15 0zM957.68 1517.76 a7.5 7.5 0 1 0 15 0 a7.5 7.5 0 1 0 -15 0zM1022.64 1555.26 a7.5 7.5 0 1 0 15 0 a7.5 7.5 0 1 0 -15 0zM1022.64 1630.26 a7.5 7.5 0 1 0 15 0 a7.5 7.5 0 1 0 -15 0zM1087.59 1667.76 a7.5 7.5 0 1 0 15 0 a7.5 7.5 0 1 0 -15 0zM1087.59 1742.76 a7.5 7.5 0 1 0 15 0 a7.5 7.5 0 1 0 -15 0zM1022.64 1780.26 a7.5 7.5 0 1 0 15 0 a7.5 7.5 0 1 0 -15 0zM1022.64 1855.26 a7.5 7.5 0 1 0 15 0 a7.5 7.5 0 1 0 -15 0zM1022.64 2080.26 a7.5 7.5 0 1 0 15 0 a7.5 7.5 0 1 0 -15 0zM1087.59 2117.76 a7.5 7.5 0 1 0 15 0 a7.5 7.5 0 1 0 -15 0zM1087.59 2192.76 a7.5 7.5 0 1 0 15 0 a7.5 7.5 0 1 0 -15 0zM1022.64 2230.26 a7.5 7.5 0 1 0 15 0 a7.5 7.5 0 1 0 -15 0zM1152.54 55.26 a7.5 7.5 0 1 0 15 0 a7.5 7.5 0 1 0 -15 0zM1217.5 92.76 a7.5 7.5 0 1 0 15 0 a7.5 7.5 0 1 0 -15 0zM1217.5 167.76 a7.5 7.5 0 1 0 15 0 a7.5 7.5 0 1 0 -15 0zM1152.54 205.26 a7.5 7.5 0 1 0 15 0 a7.5 7.5 0 1 0 -15 0zM1152.54 280.26 a7.5 7.5 0 1 0 15 0 a7.5 7.5 0 1 0 -15 0zM1217.5 317.76 a7.5 7.5 0 1 0 15 0 a7.5 7.5 0 1 0 -15 0zM1217.5 392.76 a7.5 7.5 0 1 0 15 0 a7.5 7.5 0 1 0 -15 0zM1152.54 430.26 a7.5 7.5 0 1 0 15 0 a7.5 7.5 0 1 0 -15 0zM1152.54 880.26 a7.5 7.5 0 1 0 15 0 a7.5 7.5 0 1 0 -15 0zM1152.54 955.26 a7.5 7.5 0 1 0 15 0 a7.5 7.5 0 1 0 -15 0zM1152.54 1180.26 a7.5 7.5 0 1 0 15 0 a7.5 7.5 0 1 0 -15 0zM1217.5 1217.76 a7.5 7.5 0 1 0 15 0 a7.5 7.5 0 1 0 -15 0zM1217.5 1292.76 a7.5 7.5 0 1 0 15 0 a7.5 7.5 0 1 0 -15 0zM1152.54 1330.26 a7.5 7.5 0 1 0 15 0 a7.5 7.5 0 1 0 -15 0zM1152.54 1405.26 a7.5 7.5 0 1 0 15 0 a7.5 7.5 0 1 0 -15 0zM1217.5 1442.76 a7.5 7.5 0 1 0 15 0 a7.5 7.5 0 1 0 -15 0zM1217.5 1517.76 a7.5 7.5 0 1 0 15 0 a7.5 7.5 0 1 0 -15 0zM1152.54 1555.26 a7.5 7.5 0 1 0 15 0 a7.5 7.5 0 1 0 -15 0zM1087.59 1517.76 a7.5 7.5 0 1 0 15 0 a7.5 7.5 0 1 0 -15 0zM1087.59 1442.76 a7.5 7.5 0 1 0 15 0 a7.5 7.5 0 1 0 -15 0zM1152.54 1630.26 a7.5 7.5 0 1 0 15 0 a7.5 7.5 0 1 0 -15 0zM1217.5 1667.76 a7.5 7.5 0 1 0 15 0 a7.5 7.5 0 1 0 -15 0zM1217.5 1742.76 a7.5 7.5 0 1 0 15 0 a7.5 7.5 0 1 0 -15 0zM1152.54 1780.26 a7.5 7.5 0 1 0 15 0 a7.5 7.5 0 1 0 -15 0zM1152.54 1855.26 a7.5 7.5 0 1 0 15 0 a7.5 7.5 0 1 0 -15 0zM1217.5 1892.76 a7.5 7.5 0 1 0 15 0 a7.5 7.5 0 1 0 -15 0zM1217.5 1967.76 a7.5 7.5 0 1 0 15 0 a7.5 7.5 0 1 0 -15 0zM1152.54 2005.26 a7.5 7.5 0 1 0 15 0 a7.5 7.5 0 1 0 -15 0zM1087.59 1967.76 a7.5 7.5 0 1 0 15 0 a7.5 7.5 0 1 0 -15 0zM1087.59 1892.76 a7.5 7.5 0 1 0 15 0 a7.5 7.5 0 1 0 -15 0zM1152.54 2080.26 a7.5 7.5 0 1 0 15 0 a7.5 7.5 0 1 0 -15 0zM1022.64 2005.26 a7.5 7.5 0 1 0 15 0 a7.5 7.5 0 1 0 -15 0zM1217.5 2117.76 a7.5 7.5 0 1 0 15 0 a7.5 7.5 0 1 0 -15 0zM1217.5 2192.76 a7.5 7.5 0 1 0 15 0 a7.5 7.5 0 1 0 -15 0zM1152.54 2230.26 a7.5 7.5 0 1 0 15 0 a7.5 7.5 0 1 0 -15 0zM1152.54 2305.26 a7.5 7.5 0 1 0 15 0 a7.5 7.5 0 1 0 -15 0zM1087.59 2342.76 a7.5 7.5 0 1 0 15 0 a7.5 7.5 0 1 0 -15 0zM1022.64 2305.26 a7.5 7.5 0 1 0 15 0 a7.5 7.5 0 1 0 -15 0zM1217.5 -57.24 a7.5 7.5 0 1 0 15 0 a7.5 7.5 0 1 0 -15 0zM1282.45 -19.74 a7.5 7.5 0 1 0 15 0 a7.5 7.5 0 1 0 -15 0zM1282.45 55.26 a7.5 7.5 0 1 0 15 0 a7.5 7.5 0 1 0 -15 0zM1152.54 -19.74 a7.5 7.5 0 1 0 15 0 a7.5 7.5 0 1 0 -15 0zM1347.4 92.76 a7.5 7.5 0 1 0 15 0 a7.5 7.5 0 1 0 -15 0zM1347.4 167.76 a7.5 7.5 0 1 0 15 0 a7.5 7.5 0 1 0 -15 0zM1282.45 205.26 a7.5 7.5 0 1 0 15 0 a7.5 7.5 0 1 0 -15 0zM1282.45 280.26 a7.5 7.5 0 1 0 15 0 a7.5 7.5 0 1 0 -15 0zM1347.4 317.76 a7.5 7.5 0 1 0 15 0 a7.5 7.5 0 1 0 -15 0zM1347.4 392.76 a7.5 7.5 0 1 0 15 0 a7.5 7.5 0 1 0 -15 0zM1282.45 430.26 a7.5 7.5 0 1 0 15 0 a7.5 7.5 0 1 0 -15 0zM1282.45 505.26 a7.5 7.5 0 1 0 15 0 a7.5 7.5 0 1 0 -15 0zM1217.5 542.76 a7.5 7.5 0 1 0 15 0 a7.5 7.5 0 1 0 -15 0zM1152.54 505.26 a7.5 7.5 0 1 0 15 0 a7.5 7.5 0 1 0 -15 0zM1347.4 542.76 a7.5 7.5 0 1 0 15 0 a7.5 7.5 0 1 0 -15 0zM1347.4 617.76 a7.5 7.5 0 1 0 15 0 a7.5 7.5 0 1 0 -15 0zM1282.45 655.26 a7.5 7.5 0 1 0 15 0 a7.5 7.5 0 1 0 -15 0zM1217.5 617.76 a7.5 7.5 0 1 0 15 0 a7.5 7.5 0 1 0 -15 0zM1282.45 730.26 a7.5 7.5 0 1 0 15 0 a7.5 7.5 0 1 0 -15 0zM1347.4 767.76 a7.5 7.5 0 1 0 15 0 a7.5 7.5 0 1 0 -15 0zM1347.4 842.76 a7.5 7.5 0 1 0 15 0 a7.5 7.5 0 1 0 -15 0zM1282.45 880.26 a7.5 7.5 0 1 0 15 0 a7.5 7.5 0 1 0 -15 0zM1217.5 842.76 a7.5 7.5 0 1 0 15 0 a7.5 7.5 0 1 0 -15 0zM1217.5 767.76 a7.5 7.5 0 1 0 15 0 a7.5 7.5 0 1 0 -15 0zM1282.45 955.26 a7.5 7.5 0 1 0 15 0 a7.5 7.5 0 1 0 -15 0zM1217.5 992.76 a7.5 7.5 0 1 0 15 0 a7.5 7.5 0 1 0 -15 0zM1282.45 1855.26 a7.5 7.5 0 1 0 15 0 a7.5 7.5 0 1 0 -15 0zM1347.4 1892.76 a7.5 7.5 0 1 0 15 0 a7.5 7.5 0 1 0 -15 0zM1347.4 1967.76 a7.5 7.5 0 1 0 15 0 a7.5 7.5 0 1 0 -15 0zM1282.45 2005.26 a7.5 7.5 0 1 0 15 0 a7.5 7.5 0 1 0 -15 0zM1282.45 2080.26 a7.5 7.5 0 1 0 15 0 a7.5 7.5 0 1 0 -15 0zM1282.45 2305.26 a7.5 7.5 0 1 0 15 0 a7.5 7.5 0 1 0 -15 0zM1347.4 2342.76 a7.5 7.5 0 1 0 15 0 a7.5 7.5 0 1 0 -15 0zM1347.4 2417.76 a7.5 7.5 0 1 0 15 0 a7.5 7.5 0 1 0 -15 0zM1282.45 2455.26 a7.5 7.5 0 1 0 15 0 a7.5 7.5 0 1 0 -15 0zM1217.5 2417.76 a7.5 7.5 0 1 0 15 0 a7.5 7.5 0 1 0 -15 0zM1217.5 2342.76 a7.5 7.5 0 1 0 15 0 a7.5 7.5 0 1 0 -15 0zM1282.45 2530.26 a7.5 7.5 0 1 0 15 0 a7.5 7.5 0 1 0 -15 0zM1217.5 2567.76 a7.5 7.5 0 1 0 15 0 a7.5 7.5 0 1 0 -15 0zM1152.54 2530.26 a7.5 7.5 0 1 0 15 0 a7.5 7.5 0 1 0 -15 0zM1152.54 2455.26 a7.5 7.5 0 1 0 15 0 a7.5 7.5 0 1 0 -15 0zM1347.4 2567.76 a7.5 7.5 0 1 0 15 0 a7.5 7.5 0 1 0 -15 0zM1347.4 2642.76 a7.5 7.5 0 1 0 15 0 a7.5 7.5 0 1 0 -15 0zM1282.45 2680.26 a7.5 7.5 0 1 0 15 0 a7.5 7.5 0 1 0 -15 0zM1217.5 2642.76 a7.5 7.5 0 1 0 15 0 a7.5 7.5 0 1 0 -15 0zM1412.36 205.26 a7.5 7.5 0 1 0 15 0 a7.5 7.5 0 1 0 -15 0zM1412.36 280.26 a7.5 7.5 0 1 0 15 0 a7.5 7.5 0 1 0 -15 0zM1412.36 505.26 a7.5 7.5 0 1 0 15 0 a7.5 7.5 0 1 0 -15 0zM1477.31 542.76 a7.5 7.5 0 1 0 15 0 a7.5 7.5 0 1 0 -15 0zM1477.31 617.76 a7.5 7.5 0 1 0 15 0 a7.5 7.5 0 1 0 -15 0zM1412.36 655.26 a7.5 7.5 0 1 0 15 0 a7.5 7.5 0 1 0 -15 0zM1412.36 730.26 a7.5 7.5 0 1 0 15 0 a7.5 7.5 0 1 0 -15 0zM1347.4 1067.76 a7.5 7.5 0 1 0 15 0 a7.5 7.5 0 1 0 -15 0zM1412.36 1105.26 a7.5 7.5 0 1 0 15 0 a7.5 7.5 0 1 0 -15 0zM1412.36 1180.26 a7.5 7.5 0 1 0 15 0 a7.5 7.5 0 1 0 -15 0zM1347.4 1217.76 a7.5 7.5 0 1 0 15 0 a7.5 7.5 0 1 0 -15 0zM1282.45 1180.26 a7.5 7.5 0 1 0 15 0 a7.5 7.5 0 1 0 -15 0zM1282.45 1105.26 a7.5 7.5 0 1 0 15 0 a7.5 7.5 0 1 0 -15 0zM1347.4 1292.76 a7.5 7.5 0 1 0 15 0 a7.5 7.5 0 1 0 -15 0zM1412.36 1330.26 a7.5 7.5 0 1 0 15 0 a7.5 7.5 0 1 0 -15 0zM1412.36 1405.26 a7.5 7.5 0 1 0 15 0 a7.5 7.5 0 1 0 -15 0zM1347.4 1442.76 a7.5 7.5 0 1 0 15 0 a7.5 7.5 0 1 0 -15 0zM1282.45 1405.26 a7.5 7.5 0 1 0 15 0 a7.5 7.5 0 1 0 -15 0zM1282.45 1330.26 a7.5 7.5 0 1 0 15 0 a7.5 7.5 0 1 0 -15 0zM1412.36 2005.26 a7.5 7.5 0 1 0 15 0 a7.5 7.5 0 1 0 -15 0zM1412.36 2080.26 a7.5 7.5 0 1 0 15 0 a7.5 7.5 0 1 0 -15 0zM1347.4 2117.76 a7.5 7.5 0 1 0 15 0 a7.5 7.5 0 1 0 -15 0zM1477.31 2117.76 a7.5 7.5 0 1 0 15 0 a7.5 7.5 0 1 0 -15 0zM1477.31 2192.76 a7.5 7.5 0 1 0 15 0 a7.5 7.5 0 1 0 -15 0zM1412.36 2230.26 a7.5 7.5 0 1 0 15 0 a7.5 7.5 0 1 0 -15 0zM1347.4 2192.76 a7.5 7.5 0 1 0 15 0 a7.5 7.5 0 1 0 -15 0zM1412.36 2305.26 a7.5 7.5 0 1 0 15 0 a7.5 7.5 0 1 0 -15 0zM1477.31 2342.76 a7.5 7.5 0 1 0 15 0 a7.5 7.5 0 1 0 -15 0zM1477.31 2417.76 a7.5 7.5 0 1 0 15 0 a7.5 7.5 0 1 0 -15 0zM1412.36 2455.26 a7.5 7.5 0 1 0 15 0 a7.5 7.5 0 1 0 -15 0zM1412.36 2530.26 a7.5 7.5 0 1 0 15 0 a7.5 7.5 0 1 0 -15 0zM1477.31 2567.76 a7.5 7.5 0 1 0 15 0 a7.5 7.5 0 1 0 -15 0zM1477.31 2642.76 a7.5 7.5 0 1 0 15 0 a7.5 7.5 0 1 0 -15 0zM1412.36 2680.26 a7.5 7.5 0 1 0 15 0 a7.5 7.5 0 1 0 -15 0zM1477.31 -57.24 a7.5 7.5 0 1 0 15 0 a7.5 7.5 0 1 0 -15 0zM1542.27 -19.74 a7.5 7.5 0 1 0 15 0 a7.5 7.5 0 1 0 -15 0zM1542.27 55.26 a7.5 7.5 0 1 0 15 0 a7.5 7.5 0 1 0 -15 0zM1477.31 92.76 a7.5 7.5 0 1 0 15 0 a7.5 7.5 0 1 0 -15 0zM1412.36 55.26 a7.5 7.5 0 1 0 15 0 a7.5 7.5 0 1 0 -15 0zM1412.36 -19.74 a7.5 7.5 0 1 0 15 0 a7.5 7.5 0 1 0 -15 0zM1607.22 92.76 a7.5 7.5 0 1 0 15 0 a7.5 7.5 0 1 0 -15 0zM1607.22 167.76 a7.5 7.5 0 1 0 15 0 a7.5 7.5 0 1 0 -15 0zM1542.27 205.26 a7.5 7.5 0 1 0 15 0 a7.5 7.5 0 1 0 -15 0zM1477.31 167.76 a7.5 7.5 0 1 0 15 0 a7.5 7.5 0 1 0 -15 0zM1542.27 280.26 a7.5 7.5 0 1 0 15 0 a7.5 7.5 0 1 0 -15 0zM1477.31 317.76 a7.5 7.5 0 1 0 15 0 a7.5 7.5 0 1 0 -15 0zM1477.31 392.76 a7.5 7.5 0 1 0 15 0 a7.5 7.5 0 1 0 -15 0zM1542.27 430.26 a7.5 7.5 0 1 0 15 0 a7.5 7.5 0 1 0 -15 0zM1542.27 505.26 a7.5 7.5 0 1 0 15 0 a7.5 7.5 0 1 0 -15 0zM1412.36 430.26 a7.5 7.5 0 1 0 15 0 a7.5 7.5 0 1 0 -15 0zM1542.27 655.26 a7.5 7.5 0 1 0 15 0 a7.5 7.5 0 1 0 -15 0zM1542.27 730.26 a7.5 7.5 0 1 0 15 0 a7.5 7.5 0 1 0 -15 0zM1477.31 767.76 a7.5 7.5 0 1 0 15 0 a7.5 7.5 0 1 0 -15 0zM1542.27 955.26 a7.5 7.5 0 1 0 15 0 a7.5 7.5 0 1 0 -15 0zM1607.22 992.76 a7.5 7.5 0 1 0 15 0 a7.5 7.5 0 1 0 -15 0zM1607.22 1067.76 a7.5 7.5 0 1 0 15 0 a7.5 7.5 0 1 0 -15 0zM1542.27 1105.26 a7.5 7.5 0 1 0 15 0 a7.5 7.5 0 1 0 -15 0zM1477.31 1067.76 a7.5 7.5 0 1 0 15 0 a7.5 7.5 0 1 0 -15 0zM1477.31 992.76 a7.5 7.5 0 1 0 15 0 a7.5 7.5 0 1 0 -15 0zM1542.27 1180.26 a7.5 7.5 0 1 0 15 0 a7.5 7.5 0 1 0 -15 0zM1477.31 1217.76 a7.5 7.5 0 1 0 15 0 a7.5 7.5 0 1 0 -15 0zM1477.31 1292.76 a7.5 7.5 0 1 0 15 0 a7.5 7.5 0 1 0 -15 0zM1542.27 1330.26 a7.5 7.5 0 1 0 15 0 a7.5 7.5 0 1 0 -15 0zM1542.27 1405.26 a7.5 7.5 0 1 0 15 0 a7.5 7.5 0 1 0 -15 0zM1477.31 1442.76 a7.5 7.5 0 1 0 15 0 a7.5 7.5 0 1 0 -15 0zM1477.31 1517.76 a7.5 7.5 0 1 0 15 0 a7.5 7.5 0 1 0 -15 0zM1542.27 1555.26 a7.5 7.5 0 1 0 15 0 a7.5 7.5 0 1 0 -15 0zM1542.27 1630.26 a7.5 7.5 0 1 0 15 0 a7.5 7.5 0 1 0 -15 0zM1477.31 1667.76 a7.5 7.5 0 1 0 15 0 a7.5 7.5 0 1 0 -15 0zM1412.36 1630.26 a7.5 7.5 0 1 0 15 0 a7.5 7.5 0 1 0 -15 0zM1412.36 1555.26 a7.5 7.5 0 1 0 15 0 a7.5 7.5 0 1 0 -15 0zM1477.31 1967.76 a7.5 7.5 0 1 0 15 0 a7.5 7.5 0 1 0 -15 0zM1542.27 2005.26 a7.5 7.5 0 1 0 15 0 a7.5 7.5 0 1 0 -15 0zM1542.27 2080.26 a7.5 7.5 0 1 0 15 0 a7.5 7.5 0 1 0 -15 0zM1542.27 2230.26 a7.5 7.5 0 1 0 15 0 a7.5 7.5 0 1 0 -15 0zM1542.27 2305.26 a7.5 7.5 0 1 0 15 0 a7.5 7.5 0 1 0 -15 0zM1607.22 2342.76 a7.5 7.5 0 1 0 15 0 a7.5 7.5 0 1 0 -15 0zM1607.22 2417.76 a7.5 7.5 0 1 0 15 0 a7.5 7.5 0 1 0 -15 0zM1542.27 2455.26 a7.5 7.5 0 1 0 15 0 a7.5 7.5 0 1 0 -15 0zM1542.27 2530.26 a7.5 7.5 0 1 0 15 0 a7.5 7.5 0 1 0 -15 0z" fill="rgba(19, 85, 164, 0.36)"></path><path d="M90.56 89.28L156.38 127.28L156.38 203.28L90.56 241.28L24.74 203.28L24.74 127.28zM90.56 317.28L156.38 355.28L156.38 431.28L90.56 469.28L24.74 431.28L24.74 355.28zM24.74 659.28L90.56 697.28L90.56 773.28L24.74 811.28L-41.08 773.28L-41.08 697.28zM90.56 1001.28L156.38 1039.28L156.38 1115.28L90.56 1153.28L24.74 1115.28L24.74 1039.28zM24.74 1115.28L90.56 1153.28L90.56 1229.28L24.74 1267.28L-41.08 1229.28L-41.08 1153.28zM24.74 1343.28L90.56 1381.28L90.56 1457.28L24.74 1495.28L-41.08 1457.28L-41.08 1381.28zM24.74 1571.28L90.56 1609.28L90.56 1685.28L24.74 1723.28L-41.08 1685.28L-41.08 1609.28zM24.74 2255.28L90.56 2293.28L90.56 2369.28L24.74 2407.28L-41.08 2369.28L-41.08 2293.28zM90.56 2369.28L156.38 2407.28L156.38 2483.28L90.56 2521.28L24.74 2483.28L24.74 2407.28zM24.74 2483.28L90.56 2521.28L90.56 2597.28L24.74 2635.28L-41.08 2597.28L-41.08 2521.28zM222.2 773.28L288.02 811.28L288.02 887.28L222.2 925.28L156.38 887.28L156.38 811.28zM156.38 887.28L222.2 925.28L222.2 1001.28L156.38 1039.28L90.56 1001.28L90.56 925.28zM222.2 1001.28L288.02 1039.28L288.02 1115.28L222.2 1153.28L156.38 1115.28L156.38 1039.28zM222.2 1229.28L288.02 1267.28L288.02 1343.28L222.2 1381.28L156.38 1343.28L156.38 1267.28zM156.38 1343.28L222.2 1381.28L222.2 1457.28L156.38 1495.28L90.56 1457.28L90.56 1381.28zM222.2 1457.28L288.02 1495.28L288.02 1571.28L222.2 1609.28L156.38 1571.28L156.38 1495.28zM156.38 1571.28L222.2 1609.28L222.2 1685.28L156.38 1723.28L90.56 1685.28L90.56 1609.28zM222.2 1913.28L288.02 1951.28L288.02 2027.28L222.2 2065.28L156.38 2027.28L156.38 1951.28zM156.38 2255.28L222.2 2293.28L222.2 2369.28L156.38 2407.28L90.56 2369.28L90.56 2293.28zM156.38 2483.28L222.2 2521.28L222.2 2597.28L156.38 2635.28L90.56 2597.28L90.56 2521.28zM353.84 89.28L419.66 127.28L419.66 203.28L353.84 241.28L288.02 203.28L288.02 127.28zM288.02 203.28L353.84 241.28L353.84 317.28L288.02 355.28L222.2 317.28L222.2 241.28zM353.84 317.28L419.66 355.28L419.66 431.28L353.84 469.28L288.02 431.28L288.02 355.28zM353.84 545.28L419.66 583.28L419.66 659.28L353.84 697.28L288.02 659.28L288.02 583.28zM288.02 887.28L353.84 925.28L353.84 1001.28L288.02 1039.28L222.2 1001.28L222.2 925.28zM353.84 1001.28L419.66 1039.28L419.66 1115.28L353.84 1153.28L288.02 1115.28L288.02 1039.28zM288.02 1343.28L353.84 1381.28L353.84 1457.28L288.02 1495.28L222.2 1457.28L222.2 1381.28zM288.02 1571.28L353.84 1609.28L353.84 1685.28L288.02 1723.28L222.2 1685.28L222.2 1609.28zM353.84 1913.28L419.66 1951.28L419.66 2027.28L353.84 2065.28L288.02 2027.28L288.02 1951.28zM288.02 2027.28L353.84 2065.28L353.84 2141.28L288.02 2179.28L222.2 2141.28L222.2 2065.28zM288.02 2255.28L353.84 2293.28L353.84 2369.28L288.02 2407.28L222.2 2369.28L222.2 2293.28zM353.84 2369.28L419.66 2407.28L419.66 2483.28L353.84 2521.28L288.02 2483.28L288.02 2407.28zM419.66 -24.72L485.48 13.28L485.48 89.28L419.66 127.28L353.84 89.28L353.84 13.28zM419.66 203.28L485.48 241.28L485.48 317.28L419.66 355.28L353.84 317.28L353.84 241.28zM419.66 431.28L485.48 469.28L485.48 545.28L419.66 583.28L353.84 545.28L353.84 469.28zM485.48 1001.28L551.3 1039.28L551.3 1115.28L485.48 1153.28L419.66 1115.28L419.66 1039.28zM419.66 1571.28L485.48 1609.28L485.48 1685.28L419.66 1723.28L353.84 1685.28L353.84 1609.28zM419.66 2255.28L485.48 2293.28L485.48 2369.28L419.66 2407.28L353.84 2369.28L353.84 2293.28zM485.48 2369.28L551.3 2407.28L551.3 2483.28L485.48 2521.28L419.66 2483.28L419.66 2407.28zM617.12 773.28L682.94 811.28L682.94 887.28L617.12 925.28L551.3 887.28L551.3 811.28zM617.12 1001.28L682.94 1039.28L682.94 1115.28L617.12 1153.28L551.3 1115.28L551.3 1039.28zM551.3 1115.28L617.12 1153.28L617.12 1229.28L551.3 1267.28L485.48 1229.28L485.48 1153.28zM617.12 1229.28L682.94 1267.28L682.94 1343.28L617.12 1381.28L551.3 1343.28L551.3 1267.28zM551.3 1343.28L617.12 1381.28L617.12 1457.28L551.3 1495.28L485.48 1457.28L485.48 1381.28zM551.3 1571.28L617.12 1609.28L617.12 1685.28L551.3 1723.28L485.48 1685.28L485.48 1609.28zM617.12 2141.28L682.94 2179.28L682.94 2255.28L617.12 2293.28L551.3 2255.28L551.3 2179.28zM551.3 2255.28L617.12 2293.28L617.12 2369.28L551.3 2407.28L485.48 2369.28L485.48 2293.28zM682.94 -24.72L748.76 13.28L748.76 89.28L682.94 127.28L617.12 89.28L617.12 13.28zM682.94 203.28L748.76 241.28L748.76 317.28L682.94 355.28L617.12 317.28L617.12 241.28zM682.94 659.28L748.76 697.28L748.76 773.28L682.94 811.28L617.12 773.28L617.12 697.28zM748.76 773.28L814.58 811.28L814.58 887.28L748.76 925.28L682.94 887.28L682.94 811.28zM748.76 1001.28L814.58 1039.28L814.58 1115.28L748.76 1153.28L682.94 1115.28L682.94 1039.28zM748.76 1229.28L814.58 1267.28L814.58 1343.28L748.76 1381.28L682.94 1343.28L682.94 1267.28zM748.76 1457.28L814.58 1495.28L814.58 1571.28L748.76 1609.28L682.94 1571.28L682.94 1495.28zM748.76 1685.28L814.58 1723.28L814.58 1799.28L748.76 1837.28L682.94 1799.28L682.94 1723.28zM748.76 1913.28L814.58 1951.28L814.58 2027.28L748.76 2065.28L682.94 2027.28L682.94 1951.28zM682.94 2255.28L748.76 2293.28L748.76 2369.28L682.94 2407.28L617.12 2369.28L617.12 2293.28zM748.76 2369.28L814.58 2407.28L814.58 2483.28L748.76 2521.28L682.94 2483.28L682.94 2407.28zM814.58 -24.72L880.4 13.28L880.4 89.28L814.58 127.28L748.76 89.28L748.76 13.28zM880.4 89.28L946.22 127.28L946.22 203.28L880.4 241.28L814.58 203.28L814.58 127.28zM880.4 317.28L946.22 355.28L946.22 431.28L880.4 469.28L814.58 431.28L814.58 355.28zM880.4 1001.28L946.22 1039.28L946.22 1115.28L880.4 1153.28L814.58 1115.28L814.58 1039.28zM814.58 1343.28L880.4 1381.28L880.4 1457.28L814.58 1495.28L748.76 1457.28L748.76 1381.28zM880.4 2141.28L946.22 2179.28L946.22 2255.28L880.4 2293.28L814.58 2255.28L814.58 2179.28zM814.58 2255.28L880.4 2293.28L880.4 2369.28L814.58 2407.28L748.76 2369.28L748.76 2293.28zM946.22 203.28L1012.04 241.28L1012.04 317.28L946.22 355.28L880.4 317.28L880.4 241.28zM946.22 431.28L1012.04 469.28L1012.04 545.28L946.22 583.28L880.4 545.28L880.4 469.28zM1012.04 545.28L1077.86 583.28L1077.86 659.28L1012.04 697.28L946.22 659.28L946.22 583.28zM1012.04 773.28L1077.86 811.28L1077.86 887.28L1012.04 925.28L946.22 887.28L946.22 811.28zM946.22 887.28L1012.04 925.28L1012.04 1001.28L946.22 1039.28L880.4 1001.28L880.4 925.28zM1012.04 1001.28L1077.86 1039.28L1077.86 1115.28L1012.04 1153.28L946.22 1115.28L946.22 1039.28zM1012.04 1457.28L1077.86 1495.28L1077.86 1571.28L1012.04 1609.28L946.22 1571.28L946.22 1495.28zM946.22 1571.28L1012.04 1609.28L1012.04 1685.28L946.22 1723.28L880.4 1685.28L880.4 1609.28zM946.22 2483.28L1012.04 2521.28L1012.04 2597.28L946.22 2635.28L880.4 2597.28L880.4 2521.28zM1143.68 89.28L1209.5 127.28L1209.5 203.28L1143.68 241.28L1077.86 203.28L1077.86 127.28zM1143.68 545.28L1209.5 583.28L1209.5 659.28L1143.68 697.28L1077.86 659.28L1077.86 583.28zM1077.86 659.28L1143.68 697.28L1143.68 773.28L1077.86 811.28L1012.04 773.28L1012.04 697.28zM1077.86 887.28L1143.68 925.28L1143.68 1001.28L1077.86 1039.28L1012.04 1001.28L1012.04 925.28zM1143.68 1229.28L1209.5 1267.28L1209.5 1343.28L1143.68 1381.28L1077.86 1343.28L1077.86 1267.28zM1077.86 1799.28L1143.68 1837.28L1143.68 1913.28L1077.86 1951.28L1012.04 1913.28L1012.04 1837.28zM1143.68 1913.28L1209.5 1951.28L1209.5 2027.28L1143.68 2065.28L1077.86 2027.28L1077.86 1951.28zM1077.86 2027.28L1143.68 2065.28L1143.68 2141.28L1077.86 2179.28L1012.04 2141.28L1012.04 2065.28zM1077.86 2255.28L1143.68 2293.28L1143.68 2369.28L1077.86 2407.28L1012.04 2369.28L1012.04 2293.28zM1209.5 -24.72L1275.32 13.28L1275.32 89.28L1209.5 127.28L1143.68 89.28L1143.68 13.28zM1209.5 431.28L1275.32 469.28L1275.32 545.28L1209.5 583.28L1143.68 545.28L1143.68 469.28zM1275.32 545.28L1341.14 583.28L1341.14 659.28L1275.32 697.28L1209.5 659.28L1209.5 583.28zM1275.32 773.28L1341.14 811.28L1341.14 887.28L1275.32 925.28L1209.5 887.28L1209.5 811.28zM1275.32 1001.28L1341.14 1039.28L1341.14 1115.28L1275.32 1153.28L1209.5 1115.28L1209.5 1039.28zM1275.32 1913.28L1341.14 1951.28L1341.14 2027.28L1275.32 2065.28L1209.5 2027.28L1209.5 1951.28zM1275.32 2141.28L1341.14 2179.28L1341.14 2255.28L1275.32 2293.28L1209.5 2255.28L1209.5 2179.28zM1341.14 203.28L1406.96 241.28L1406.96 317.28L1341.14 355.28L1275.32 317.28L1275.32 241.28zM1406.96 545.28L1472.78 583.28L1472.78 659.28L1406.96 697.28L1341.14 659.28L1341.14 583.28zM1341.14 1115.28L1406.96 1153.28L1406.96 1229.28L1341.14 1267.28L1275.32 1229.28L1275.32 1153.28zM1341.14 1343.28L1406.96 1381.28L1406.96 1457.28L1341.14 1495.28L1275.32 1457.28L1275.32 1381.28zM1341.14 1571.28L1406.96 1609.28L1406.96 1685.28L1341.14 1723.28L1275.32 1685.28L1275.32 1609.28zM1406.96 1913.28L1472.78 1951.28L1472.78 2027.28L1406.96 2065.28L1341.14 2027.28L1341.14 1951.28zM1406.96 2141.28L1472.78 2179.28L1472.78 2255.28L1406.96 2293.28L1341.14 2255.28L1341.14 2179.28zM1341.14 2255.28L1406.96 2293.28L1406.96 2369.28L1341.14 2407.28L1275.32 2369.28L1275.32 2293.28zM1406.96 2369.28L1472.78 2407.28L1472.78 2483.28L1406.96 2521.28L1341.14 2483.28L1341.14 2407.28zM1341.14 2483.28L1406.96 2521.28L1406.96 2597.28L1341.14 2635.28L1275.32 2597.28L1275.32 2521.28z" stroke="rgba(12, 49, 99, 1)" stroke-width="2"></path></g><defs><mask id="SvgjsMask1172"><rect width="1440" height="2560" fill="#ffffff"></rect></mask></defs></svg>